<?xml version="1.0" encoding="utf-8"?>
<!-- Generator: Adobe Illustrator 26.5.1, SVG Export Plug-In . SVG Version: 6.00 Build 0)  -->
<svg version="1.1" id="레이어_1" xmlns="http://www.w3.org/2000/svg" xmlns:xlink="http://www.w3.org/1999/xlink" x="0px"
	 y="0px" viewBox="0 0 686 114.4" style="enable-background:new 0 0 686 114.4;" xml:space="preserve">
<style type="text/css">
	.st0{fill:#B194BF;}
</style>
<g>
	<path class="st0" d="M95.8,93.3c-0.4,1.3-0.6,2.5-0.6,3.8c0,1.1,0.1,2,0.4,2.7c0.3,0.7,0.6,1.3,1,1.8c0.3,0.4,0.6,0.8,0.7,1
		c1,1,1.5,2,1.5,2.9c0,0.2-0.1,0.7-0.3,1.5c-0.4,1.4-1.2,2.3-2.6,2.9c-1.3,0.5-3.4,0.8-6.1,0.8H55c-2.1,0-3.6-0.3-4.8-1
		c-1.1-0.7-1.7-1.6-1.7-2.8c0-0.6,0.1-1.2,0.4-1.9c0.3-0.8,0.7-1.4,1.2-1.8c0.5-0.4,1.3-1,2.3-1.5c1.6-0.9,2.8-1.9,3.8-2.9
		c1-1.1,1.8-2.8,2.5-5.3l3.8-12.6H39.7l-4,8.4c-1.7,3.6-2.5,6.5-2.5,8.5c0,1.2,0.2,2.1,0.6,2.9c0.4,0.7,1,1.5,1.8,2.3
		c0.7,0.8,1.1,1.4,1.4,2c0.2,0.5,0.3,1.2,0.1,2.1c-0.4,1.5-1.2,2.5-2.4,3c-1.2,0.5-3.2,0.8-5.8,0.8H7c-2.2,0-4-0.4-5.1-1.2
		c-1.2-0.8-1.8-1.9-1.8-3.3c0-1.6,0.6-2.8,1.7-3.7c1.1-0.9,2.8-1.9,5.1-3c2.9-1.5,5.3-2.9,7-4.3c1.8-1.4,3.3-3.4,4.5-5.9l26.1-54.1
		c4-8.4,8.7-14.5,14.2-18.3c5.4-3.8,12.6-5.6,21.5-5.6c10,0,17.7,2,23.2,6.1c5.5,4.1,8.2,9.7,8.2,16.9c0,3-0.5,6.2-1.5,9.4
		L95.8,93.3z M67,66.1l7.8-25.8c0.4-1.2,0.6-2.4,0.6-3.7c0-1.9-0.5-3.3-1.5-4.2c-1-0.9-2.5-1.4-4.3-1.4c-2.3,0-4.4,0.7-6,2.1
		c-1.7,1.4-3.3,3.8-5,7.3l-12,25.7H67z"/>
	<path class="st0" d="M200.7,40.2c4.4,5.2,6.5,12,6.5,20.5c0,4.4-0.5,8.7-1.6,12.9c-3.1,12.6-8.5,22.2-16.1,28.6
		c-7.6,6.5-16.3,9.7-26.2,9.7c-5.6,0-10.4-1-14.5-2.9c-4.1-1.9-7.3-4.6-9.8-8.1l-5.3,4.5c-2.1,1.8-4.1,3.1-6,3.9
		c-2,0.8-4.2,1.2-6.7,1.2h-6.5c-2.4,0-4.3-0.5-5.6-1.5c-1.3-1-2-2.5-2-4.5c0-0.9,0.1-1.9,0.4-3.1L132,21.9c0.3-0.9,0.4-1.6,0.4-2.2
		c0-1.7-1-3.2-3.1-4.7c-1-0.9-1.7-1.6-2.1-2.1c-0.4-0.5-0.4-1.2-0.1-2.1c0.7-2.2,3.8-4.2,9.3-5.9c5.5-1.7,11.3-2.6,17.4-2.6
		c5.7,0,9.9,1.1,12.5,3.3c2.7,2.2,4,5.2,4,8.9c0,2.1-0.3,4.1-1,6.2l-6.2,20c5.7-5.4,12.4-8.1,20.1-8.1
		C190.6,32.4,196.4,35,200.7,40.2z M169.7,56.7c0-4.5-1.3-6.7-4-6.7c-2.3,0-4.5,1.2-6.6,3.7l-9.5,31.1l-0.9,2.8
		c-0.5,1.5-0.7,3-0.7,4.5c0,3.4,1.6,5.1,4.8,5.1c2.3,0,4.6-1.7,6.7-5.1c2.2-3.4,4.5-9.8,7.2-19.2C168.7,66.1,169.7,60.8,169.7,56.7z
		"/>
	<path class="st0" d="M294.1,41.1c6.3,5.4,9.5,12.4,9.5,21.1c0,2.9-0.4,6.2-1.2,9.8c-1.9,8-5.3,15-10.4,21.1
		c-5.1,6-11.3,10.7-18.7,13.9c-7.4,3.3-15.4,4.9-24,4.9c-13.6,0-23.6-2.7-30.2-8.1c-6.5-5.4-9.8-12.6-9.8-21.6c0-3,0.4-6.4,1.2-10.1
		c1.9-7.6,5.4-14.4,10.6-20.3c5.2-5.9,11.6-10.5,19.2-13.8c7.6-3.3,15.7-4.9,24.3-4.9C277.9,33,287.7,35.7,294.1,41.1z M257.7,51.6
		c-2.3,3.7-5,10.6-8.1,20.8c-3.1,10.2-4.7,17.3-4.7,21.4c0,2.2,0.3,3.6,1,4.3c0.7,0.7,1.6,1.1,2.8,1.1c2.1,0.2,4.2-1.6,6.4-5.3
		c2.2-3.7,5-11,8.3-21.7c3-9.5,4.5-16.4,4.5-20.7c0-2.1-0.3-3.5-1-4.3c-0.6-0.8-1.5-1.2-2.7-1.2C262.1,46.1,260,47.9,257.7,51.6z"/>
	<path class="st0" d="M391.3,90.4c-0.2,0.8-0.3,1.4-0.3,1.8c0,0.7,0.2,1.2,0.5,1.6c0.3,0.4,0.8,0.6,1.4,0.6c1.2,0,2.2-0.5,3-1.5
		c0.8-1,1.4-1.5,1.7-1.5c0.5,0,0.9,0.3,1.2,1c0.3,0.6,0.5,1.4,0.5,2.3c0.1,2.7-0.9,5.5-2.9,8.1c-2.1,2.7-4.9,4.9-8.7,6.7
		c-3.7,1.8-7.9,2.6-12.5,2.6c-5.8,0-10.4-1.2-13.8-3.5c-3.4-2.3-5.6-5.4-6.6-9.2c-3.5,3.9-7.4,6.9-11.7,8.9c-4.3,2-8.6,3-13,3
		c-6.8,0-12.6-1.7-17.2-5.1c-4.6-3.4-7-8.1-7-14.2c0-2.7,0.5-5.6,1.5-8.5l9.4-30.7c0.3-0.9,0.4-1.6,0.4-2.2c0-1.1-0.2-1.9-0.7-2.6
		c-0.5-0.6-1.2-1.3-2.2-2c-1-0.8-1.7-1.5-2.1-2.1c-0.4-0.6-0.4-1.4-0.1-2.3c0.6-2.2,3.7-4.2,9.2-5.9c5.6-1.7,11.4-2.6,17.5-2.6
		c5.7,0,9.8,1.1,12.5,3.2c2.6,2.2,4,5.1,4,8.8c0,2.3-0.3,4.4-1,6.5L345,82c-0.4,1.1-0.6,2.1-0.6,3.1c0,1.4,0.4,2.4,1.2,3.1
		c0.8,0.7,1.8,1,3.1,1c1.9,0,3.4-0.5,4.5-1.6c1.2-1.1,2.3-2.9,3.5-5.4l9-29.5c0.3-0.9,0.4-1.6,0.4-2.2c0-1.1-0.2-1.9-0.7-2.6
		c-0.5-0.6-1.2-1.3-2.1-2c-1-0.8-1.7-1.5-2.1-2.1c-0.4-0.6-0.4-1.4-0.1-2.3c0.5-2.2,3.5-4.2,9.1-5.9c5.6-1.7,11.4-2.6,17.5-2.6
		c5.7,0,9.9,1.1,12.5,3.2c2.7,2.2,4,5,4,8.7c0,1.9-0.4,4.1-1.2,6.6L391.3,90.4z"/>
	<path class="st0" d="M474.7,36.1c1,0.8,1.5,1.9,1.5,3.2c0,0.4-0.1,1.1-0.3,2.1c-1.3,4.3-4.2,6.5-8.8,6.5h-8.5l-11,36.2
		c-0.5,1.5-0.7,3-0.7,4.5c0,1.8,0.5,3,1.5,3.7c1,0.7,2.3,1,4.1,1c1.6,0,3.5-0.2,5.9-0.6c1.2-0.3,2.2-0.4,3.1-0.4
		c0.7,0,1.2,0.2,1.5,0.7c0.3,0.4,0.5,1,0.5,1.7c0.1,2-1.3,4.3-4.3,7.1c-3,2.8-7,5.2-12.1,7.2c-5.1,2-10.7,3-16.9,3
		c-6.7,0-12-1.5-16-4.5c-4-3-6-7.2-6-12.5c0-2.4,0.4-4.8,1.2-7l9.4-29.1c0.5-1.7,0.7-3,0.7-4c0-2-0.5-3.6-1.4-5
		c-0.9-1.4-2.2-2.8-3.9-4.3c-1.5-1.4-2.5-2.5-3.1-3.4c-0.6-0.9-0.7-2-0.4-3.3c0.4-1.3,1.2-2.2,2.5-2.9c1.3-0.7,3.3-1,6-1h8.2
		l9.2-9.2c3.2-3.2,6.2-5.5,8.9-6.7c2.7-1.3,6.2-1.9,10.5-1.9c6.2,0,9.2,2.3,9.2,7c0,1.5-0.2,2.8-0.6,4.1l-2.1,6.7h7.8
		C472.2,34.9,473.7,35.3,474.7,36.1z"/>
	<path class="st0" d="M584.4,90.4c-0.2,0.8-0.3,1.4-0.3,1.8c0,0.7,0.2,1.2,0.5,1.6c0.3,0.4,0.8,0.6,1.4,0.6c1.2,0,2.2-0.5,3-1.5
		c0.8-1,1.4-1.5,1.7-1.5c0.5,0,0.9,0.3,1.2,1c0.3,0.6,0.5,1.4,0.5,2.3c0.1,2.7-0.9,5.5-2.9,8.1c-2.1,2.7-4.9,4.9-8.7,6.7
		c-3.7,1.8-7.9,2.6-12.5,2.6c-5.8,0-10.4-1.2-13.8-3.5c-3.4-2.3-5.6-5.4-6.6-9.2c-3.5,3.9-7.4,6.9-11.7,8.9c-4.3,2-8.6,3-13,3
		c-6.8,0-12.6-1.7-17.2-5.1c-4.6-3.4-7-8.1-7-14.2c0-2.7,0.5-5.6,1.5-8.5l9.4-30.7c0.3-0.9,0.4-1.6,0.4-2.2c0-1.1-0.2-1.9-0.7-2.6
		c-0.5-0.6-1.2-1.3-2.2-2c-1-0.8-1.7-1.5-2.1-2.1c-0.4-0.6-0.4-1.4-0.1-2.3c0.6-2.2,3.7-4.2,9.2-5.9c5.6-1.7,11.4-2.6,17.5-2.6
		c5.7,0,9.8,1.1,12.5,3.2c2.6,2.2,4,5.1,4,8.8c0,2.3-0.3,4.4-1,6.5L538.1,82c-0.4,1.1-0.6,2.1-0.6,3.1c0,1.4,0.4,2.4,1.2,3.1
		c0.8,0.7,1.8,1,3.1,1c1.9,0,3.4-0.5,4.5-1.6c1.2-1.1,2.3-2.9,3.5-5.4l9-29.5c0.3-0.9,0.4-1.6,0.4-2.2c0-1.1-0.2-1.9-0.7-2.6
		c-0.5-0.6-1.2-1.3-2.1-2c-1-0.8-1.7-1.5-2.1-2.1c-0.4-0.6-0.4-1.4-0.1-2.3c0.5-2.2,3.5-4.2,9.1-5.9c5.6-1.7,11.4-2.6,17.5-2.6
		c5.7,0,9.9,1.1,12.5,3.2c2.7,2.2,4,5,4,8.7c0,1.9-0.4,4.1-1.2,6.6L584.4,90.4z"/>
	<path class="st0" d="M667.2,33.9c5.9,1.5,10.5,3.5,13.6,6.2c3.2,2.6,4.8,5.6,4.8,9c0,3.4-1.3,6.2-4,8.4c-2.7,2.2-6.4,3.2-11.2,3.2
		c-4.9,0-9-1.2-12.4-3.7c-3.4-2.4-5.1-5.5-5.1-9.2c0-1.3,0.2-2.5,0.6-3.7c-1.8-0.5-3.3-0.7-4.7-0.7c-2.4,0-4.5,0.6-6.1,1.8
		s-2.4,2.8-2.3,5c0,2.5,1.3,4.7,3.8,6.5c2.5,1.8,6.7,4,12.3,6.6c4.9,2.2,8.9,4.1,12.1,5.9c3.2,1.8,5.9,4.1,8.1,6.8
		c2.2,2.7,3.3,6,3.3,9.7c0,0.8-0.2,2.3-0.6,4.4c-1.6,6.6-5.9,11.7-13.1,15.6c-7.1,3.8-16.5,5.7-28.2,5.7c-13.1,0-23.5-1.8-31.2-5.3
		c-7.7-3.5-11.5-8.4-11.5-14.5c0-4.2,1.3-7.4,3.8-9.5c2.5-2.2,5.9-3.2,10.1-3.2c4.9,0,9.1,1.5,12.5,4.5c3.5,3,5.2,6.9,5.2,11.6
		c0,1.3-0.1,2.6-0.4,4c2.3,0.6,4.6,0.9,6.8,0.9c2.5,0,4.6-0.7,6.3-2.1c1.7-1.4,2.5-3.3,2.5-5.7c-0.1-2.2-1.2-4.2-3.4-5.8
		c-2.2-1.6-5.6-3.5-10.3-5.8c-4.4-2.1-8-4-10.9-5.8c-2.8-1.8-5.3-4.1-7.3-6.8c-2-2.7-3-6-3-9.7c0-8,3.3-14.4,10.1-19.1
		c6.7-4.7,16.2-7.1,28.5-7.1C654.2,31.7,661.3,32.4,667.2,33.9z"/>
</g>
<g>
	<path class="st0" d="M253.4,265.4c-1.7,2.6-3.7,4.5-6.2,5.9c-2.5,1.3-4.9,2-7.3,2c-2.3,0-4.4-0.6-6.4-1.7c-2-1.1-3.3-2.4-3.9-3.9
		l-35.7,59.6c-2.7,4.6-5.2,7.8-7.4,9.8c-2.2,1.9-4.7,2.9-7.6,2.9c-6.6,0-10.3-4.2-11.2-12.6l-4.7-43.1l-29.6,43.1
		c-3.4,5-6.2,8.3-8.3,10.1c-2.1,1.7-4.5,2.6-7.3,2.6c-6,0-9.6-4.7-10.9-14.1l-9.4-66.3c-0.3-2-0.9-3.5-1.7-4.7
		c-0.8-1.2-1.9-2.3-3.2-3.4c-0.9-0.8-1.5-1.4-1.9-2c-0.4-0.5-0.6-1.1-0.6-1.8c-0.5-3.6,1.7-5.4,6.5-5.4h36.5c2.2,0,3.9,0.5,5.1,1.4
		c1.1,0.9,1.6,2.2,1.5,3.7c0,0.8-0.2,1.5-0.7,2.3c-0.4,0.7-0.9,1.4-1.4,2c-1.1,1.2-1.9,2.3-2.3,3.4c-0.5,1.1-0.6,2.5-0.4,4.3
		l3.8,35.4l22-31.5l-0.4-3.5c-0.2-1.9-0.7-3.4-1.5-4.5c-0.8-1.2-1.9-2.3-3.2-3.4c-1-0.9-1.7-1.6-2.1-2.1c-0.4-0.5-0.6-1.1-0.6-1.8
		c-0.5-3.6,1.7-5.4,6.5-5.4h36.7c2.2,0,4,0.5,5.1,1.4c1.2,0.9,1.7,2.2,1.6,3.7c0,1.3-0.7,2.7-2.1,4.3c-1,1.2-1.7,2.3-2.2,3.4
		c-0.5,1.1-0.7,2.5-0.6,4.3l1.8,32l19.8-34.6c3.2-5.6,6.4-9.5,9.4-11.7c3-2.2,7-3.3,11.9-3.3c4.4,0,8,1.3,10.7,4
		c2.7,2.6,4.1,6.2,4.1,10.7C255.9,259.7,255,262.8,253.4,265.4z"/>
	<path class="st0" d="M325.8,270.3c6.3,5.4,9.5,12.4,9.5,21.1c0,2.9-0.4,6.2-1.2,9.8c-1.9,8-5.3,15-10.4,21.1
		c-5.1,6-11.3,10.7-18.7,13.9c-7.4,3.3-15.4,4.9-24,4.9c-13.6,0-23.6-2.7-30.2-8.1c-6.5-5.4-9.8-12.6-9.8-21.6c0-3,0.4-6.4,1.2-10.1
		c1.9-7.6,5.4-14.4,10.6-20.3c5.2-5.9,11.6-10.5,19.2-13.8c7.6-3.3,15.7-4.9,24.3-4.9C309.7,262.2,319.5,264.9,325.8,270.3z
		 M289.4,280.8c-2.3,3.7-5,10.6-8.1,20.8c-3.1,10.2-4.7,17.3-4.7,21.4c0,2.2,0.3,3.6,1,4.3c0.7,0.7,1.6,1.1,2.8,1.1
		c2.1,0.2,4.2-1.6,6.4-5.3c2.2-3.7,5-11,8.3-21.7c3-9.5,4.5-16.4,4.5-20.7c0-2.1-0.3-3.5-1-4.3c-0.6-0.8-1.5-1.2-2.7-1.2
		C293.9,275.3,291.7,277.1,289.4,280.8z"/>
	<path class="st0" d="M421,267.2c3.3,3.3,4.9,7.4,4.9,12.3c0,1.9-0.2,3.6-0.6,5.1c-1,4-2.8,7.1-5.6,9.2c-2.7,2.2-6,3.2-9.8,3.2
		c-3.7,0-6.5-0.9-8.4-2.6c-1.9-1.8-3.6-4.1-5.1-7c-0.8-1.7-1.5-2.9-2.2-3.7c-0.7-0.8-1.5-1.2-2.3-1.2c-1,0-1.8,0.4-2.6,1.2
		c-0.7,0.8-1.4,2.2-2,4.1L376,324.6c-0.2,0.5-0.3,1.2-0.3,2.2c0,1.3,0.4,2.3,1.1,3.2c0.7,0.8,1.7,1.6,3,2.4c1.2,0.8,2,1.4,2.3,1.9
		c0.4,0.5,0.5,1.1,0.4,1.9c-0.2,1.3-0.9,2.2-2.1,2.8c-1.2,0.6-3.3,0.9-6.2,0.9h-37.6c-2.5,0-4.4-0.4-5.5-1.2
		c-1.1-0.8-1.5-1.9-1.2-3.3c0.4-1.2,1.4-2.2,3.1-3.1c1.5-0.8,2.7-1.7,3.7-2.8c1-1.1,1.8-2.8,2.5-5.1l13.1-42.4
		c0.2-0.5,0.3-1.2,0.3-2.1c0-1.1-0.2-1.9-0.7-2.5s-1.2-1.3-2.1-2.2c-1-0.8-1.7-1.5-2.1-2.1c-0.4-0.6-0.4-1.4-0.1-2.3
		c0.6-2.2,3.7-4.2,9.2-5.9c5.6-1.7,11.4-2.6,17.5-2.6c4,0,7.3,0.9,10,2.7c2.6,1.8,4.4,4.4,5.1,7.7c4.7-6.9,10.9-10.4,18.5-10.4
		C413.4,262.2,417.7,263.9,421,267.2z"/>
	<path class="st0" d="M519.8,266.9c3.4,3.1,5.1,6.8,5.1,11.2c0,4.7-1.4,8.4-4.3,11c-2.8,2.6-6.6,4-11.2,4c-4.1,0-7.3-1-9.5-3.2
		c-2.3-2.1-3.3-4.5-3.2-7.1c-1-0.2-1.8,0.2-2.5,1.2c-0.7,1-1.4,2.9-2.2,5.7c-0.5,1.9-1.4,3.6-2.8,5.1c6.7,0.5,11.6,2,14.8,4.5
		c3.2,2.5,4.8,5.8,4.8,9.8c0,2-0.3,3.9-1,5.9l-1.2,4.5c-0.2,0.5-0.3,1.1-0.3,1.9c0,1.4,0.6,2.1,1.9,2.1c1.2,0,2.2-0.5,3-1.5
		c0.8-1,1.4-1.5,1.7-1.5c0.5,0,0.9,0.3,1.2,1c0.3,0.6,0.4,1.4,0.4,2.3c0.1,2.8-0.8,5.6-2.6,8.3c-1.8,2.7-4.5,4.9-8.2,6.6
		c-3.7,1.7-8.1,2.6-13.3,2.6c-6.3,0-11.5-1.6-15.6-4.7c-4.2-3.1-6.2-7.2-6.2-12.3c0-1.9,0.4-4,1.2-6.3l2.8-7.3
		c0.5-1.8,0.7-3,0.7-3.8c0-1.3-0.4-2.2-1.2-2.8c-0.8-0.6-2.1-0.9-3.9-0.9h-2.9l-6.6,21.6c-0.3,1.2-0.4,2.2-0.4,3.1
		c0,1.3,0.2,2.3,0.7,3c0.5,0.7,1.2,1.4,2.1,2.1c0.7,0.7,1.2,1.2,1.5,1.7c0.3,0.4,0.3,1,0.1,1.7c-0.5,1.3-1.5,2.2-2.9,2.8
		c-1.5,0.6-3.7,0.9-6.8,0.9h-33.5c-2.5,0-4.4-0.4-5.6-1.2c-1.2-0.8-1.6-1.9-1.2-3.3c0.4-1.2,1.4-2.2,3.1-3.1
		c1.5-0.8,2.7-1.7,3.7-2.8c1-1.1,1.8-2.8,2.5-5.1l22.3-73.2c0.3-0.9,0.4-1.6,0.4-2.2c0-1.1-0.3-2-0.8-2.6c-0.5-0.7-1.2-1.4-2.1-2.1
		c-1-0.8-1.7-1.5-2.1-2.1c-0.4-0.6-0.5-1.4-0.2-2.3c0.6-2.2,3.7-4.2,9.2-5.9c5.6-1.7,11.4-2.5,17.5-2.5c5.7,0,9.8,1.1,12.5,3.2
		c2.6,2.1,4,5,4,8.7c0,2.3-0.3,4.4-1,6.5l-12.8,41.7h4.8c2,0,3.5-0.6,4.8-1.8c1.2-1.2,2.2-2.9,2.9-5.1c2.4-7.2,5.6-12.8,9.5-16.6
		c3.9-3.8,9.1-5.7,15.6-5.7C511.9,262.2,516.4,263.8,519.8,266.9z"/>
	<path class="st0" d="M591.2,263.1c5.9,1.5,10.5,3.5,13.6,6.2c3.2,2.6,4.8,5.6,4.8,9c0,3.4-1.3,6.2-4,8.4c-2.7,2.2-6.4,3.2-11.2,3.2
		c-4.9,0-9-1.2-12.4-3.7c-3.4-2.4-5.1-5.5-5.1-9.2c0-1.3,0.2-2.5,0.6-3.7c-1.8-0.5-3.3-0.7-4.7-0.7c-2.4,0-4.5,0.6-6.1,1.8
		s-2.4,2.8-2.3,5c0,2.5,1.3,4.7,3.8,6.5c2.5,1.8,6.7,4,12.3,6.6c4.9,2.2,8.9,4.1,12.1,5.9c3.2,1.8,5.9,4.1,8.1,6.8
		c2.2,2.7,3.3,6,3.3,9.7c0,0.8-0.2,2.3-0.6,4.4c-1.6,6.6-5.9,11.7-13.1,15.6c-7.1,3.8-16.5,5.7-28.2,5.7c-13.1,0-23.5-1.8-31.2-5.3
		c-7.7-3.5-11.5-8.4-11.5-14.5c0-4.2,1.3-7.4,3.8-9.5c2.5-2.2,5.9-3.2,10.1-3.2c4.9,0,9.1,1.5,12.5,4.5c3.5,3,5.2,6.9,5.2,11.6
		c0,1.3-0.1,2.6-0.4,4c2.3,0.6,4.6,0.9,6.8,0.9c2.5,0,4.6-0.7,6.3-2.1c1.7-1.4,2.5-3.3,2.5-5.7c-0.1-2.2-1.2-4.2-3.4-5.8
		c-2.2-1.6-5.6-3.5-10.3-5.8c-4.4-2.1-8-4-10.9-5.8c-2.8-1.8-5.3-4.1-7.3-6.8c-2-2.7-3-6-3-9.7c0-8,3.3-14.4,10.1-19.1
		c6.7-4.7,16.2-7.1,28.5-7.1C578.3,260.9,585.3,261.7,591.2,263.1z"/>
</g>
<g>
	<path class="st0" d="M76.4,499.1c1.1,0.6,1.7,1.5,1.7,2.7c0,0.5-0.1,1.1-0.4,1.9c-0.3,0.7-0.7,1.3-1.2,1.8c-0.5,0.5-1,0.9-1.5,1.2
		c-0.4,0.2-0.8,0.5-1,0.7c-1.6,0.9-2.8,1.9-3.8,2.9c-1,1.1-1.8,2.7-2.5,5l-17.8,63.2c-0.4,1.3-0.6,2.5-0.6,3.7s0.2,2.2,0.5,2.9
		c0.3,0.8,0.9,1.6,1.5,2.5c0.9,1.3,1.3,2.3,1.3,3.1c0,0.2-0.1,0.7-0.3,1.5c-0.4,1.4-1.3,2.3-2.6,2.9c-1.4,0.5-3.4,0.8-6.2,0.8H9.1
		c-2.1,0-3.6-0.3-4.8-1c-1.1-0.7-1.7-1.6-1.7-2.8c0-0.6,0.1-1.2,0.4-1.9c0.4-1.1,1-1.9,1.9-2.5s1.4-0.9,1.6-1c1.6-1,2.8-2,3.8-3
		c1-1,1.8-2.7,2.5-5.1l17.9-63.2c0.4-1.3,0.6-2.5,0.6-3.7c0-1.1-0.2-2-0.5-2.7c-0.3-0.7-0.8-1.6-1.4-2.6c-0.9-1.3-1.3-2.3-1.3-3.1
		c0-0.3,0.1-0.8,0.3-1.6c0.4-1.3,1.2-2.2,2.6-2.7c1.3-0.5,3.3-0.8,6.1-0.8h34.5C73.7,498.2,75.3,498.5,76.4,499.1z"/>
	<path class="st0" d="M156.6,575.6c-0.2,0.4-0.3,1-0.3,1.8c0,0.7,0.2,1.2,0.5,1.6c0.3,0.4,0.8,0.6,1.4,0.6c1.2,0,2.2-0.5,3-1.5
		c0.8-1,1.4-1.5,1.7-1.5c0.5,0,0.9,0.3,1.2,1c0.3,0.6,0.4,1.4,0.4,2.3c0.1,2.8-0.8,5.6-2.8,8.3c-2,2.7-4.8,4.9-8.6,6.6
		c-3.8,1.7-8.3,2.6-13.6,2.6c-6.5,0-11.6-1.5-15.4-4.5c-3.8-3-5.8-7-5.9-12c0-3.6,0.9-7.7,2.6-12.2l8.1-21.1
		c0.5-1.3,0.7-2.3,0.7-3.1c0-1.3-0.4-2.3-1.2-3c-0.8-0.7-1.8-1.1-3-1.1c-2.2,0-4.2,1-6.2,3c-2,2-3.4,4.5-4.3,7.4l-9.1,29.9
		c-0.4,1.1-0.6,2.1-0.6,3.1c0,1.2,0.2,2.1,0.7,2.9c0.5,0.7,1.2,1.5,2.1,2.3c0.7,0.6,1.2,1.1,1.5,1.6c0.3,0.5,0.3,1.1,0.1,1.8
		c-0.4,1.3-1.3,2.2-2.8,2.8s-3.8,0.9-6.9,0.9H66.7c-2.5,0-4.4-0.4-5.5-1.2c-1.1-0.8-1.5-1.9-1.2-3.3c0.4-1.2,1.4-2.2,3.1-3.1
		c1.5-0.8,2.7-1.7,3.7-2.8c1-1.1,1.8-2.8,2.5-5.1l13.1-42.4c0.2-0.5,0.3-1.2,0.3-2.1c0-1.1-0.2-1.9-0.7-2.5
		c-0.4-0.6-1.2-1.3-2.1-2.2c-1-0.8-1.7-1.5-2.1-2.1c-0.4-0.6-0.4-1.4-0.1-2.3c0.6-2.2,3.7-4.2,9.2-5.9c5.6-1.7,11.4-2.6,17.5-2.6
		c4.9,0,8.8,1.3,11.6,4c2.8,2.7,4.1,6.4,3.8,11.2c4-5.8,8.3-9.8,12.8-12c4.5-2.2,9.4-3.3,14.7-3.3c6,0,10.8,1.8,14.5,5.4
		c3.7,3.6,5.5,8.3,5.5,14.1c0,3-0.5,6-1.5,9L156.6,575.6z"/>
	<path class="st0" d="M240.2,519.1c5.9,1.5,10.5,3.5,13.6,6.2c3.2,2.6,4.8,5.6,4.8,9c0,3.4-1.3,6.2-4,8.4c-2.7,2.2-6.4,3.2-11.2,3.2
		c-4.9,0-9-1.2-12.4-3.7c-3.4-2.4-5.1-5.5-5.1-9.2c0-1.3,0.2-2.5,0.6-3.7c-1.8-0.5-3.3-0.7-4.7-0.7c-2.4,0-4.5,0.6-6.1,1.8
		c-1.6,1.2-2.4,2.8-2.3,5c0,2.5,1.3,4.7,3.8,6.5c2.5,1.8,6.7,4,12.3,6.6c4.9,2.2,8.9,4.1,12.1,5.9c3.2,1.8,5.9,4.1,8.1,6.8
		c2.2,2.7,3.3,6,3.3,9.7c0,0.8-0.2,2.3-0.6,4.4c-1.6,6.6-5.9,11.7-13.1,15.6c-7.1,3.8-16.5,5.7-28.2,5.7c-13.1,0-23.5-1.8-31.2-5.3
		c-7.7-3.5-11.5-8.4-11.5-14.5c0-4.2,1.3-7.4,3.8-9.5c2.5-2.2,5.9-3.2,10.1-3.2c4.9,0,9.1,1.5,12.5,4.5c3.5,3,5.2,6.9,5.2,11.6
		c0,1.3-0.1,2.6-0.4,4c2.3,0.6,4.6,0.9,6.7,0.9c2.5,0,4.6-0.7,6.3-2.1c1.7-1.4,2.5-3.3,2.5-5.7c-0.1-2.2-1.2-4.2-3.4-5.8
		c-2.2-1.6-5.6-3.5-10.3-5.8c-4.4-2.1-8-4-10.9-5.8c-2.8-1.8-5.3-4.1-7.3-6.8c-2-2.7-3-6-3-9.7c0-8,3.3-14.4,10.1-19.1
		c6.7-4.7,16.2-7.1,28.5-7.1C227.2,516.9,234.2,517.7,240.2,519.1z"/>
	<path class="st0" d="M308.9,521.5c2.6,2.2,4,5.1,4,8.8c0,2.3-0.3,4.4-1,6.5l-13.5,43.9c-0.3,1.2-0.4,2.2-0.4,3.1
		c0,1.3,0.2,2.3,0.7,3c0.5,0.7,1.2,1.4,2.1,2.1c0.7,0.7,1.2,1.2,1.5,1.7s0.3,1,0.1,1.7c-0.5,1.3-1.5,2.2-2.9,2.8s-3.7,0.9-6.7,0.9
		h-33.5c-2.5,0-4.4-0.4-5.6-1.2c-1.2-0.8-1.6-1.9-1.2-3.3c0.4-1.2,1.4-2.2,3.1-3.1c1.5-0.8,2.7-1.7,3.7-2.8c1-1.1,1.8-2.8,2.5-5.1
		l12.8-42.4c0.3-0.9,0.4-1.6,0.4-2.2c0-1.1-0.2-1.9-0.7-2.6c-0.5-0.6-1.2-1.3-2.2-2c-1-0.8-1.7-1.5-2.1-2.1
		c-0.4-0.6-0.4-1.4-0.1-2.3c0.6-2.2,3.7-4.2,9.2-5.9c5.6-1.7,11.4-2.6,17.5-2.6C302.1,518.3,306.3,519.3,308.9,521.5z M315.8,489.6
		c2.5,2.5,3.8,5.6,3.8,9.2c0,2.5-0.7,5-2,7.5c-1.3,2.4-3.2,4.4-5.6,5.9c-2.4,1.5-5.1,2.3-8,2.3c-3.7,0-6.8-1.2-9.3-3.7
		c-2.5-2.5-3.8-5.6-3.9-9.3c0-2.4,0.6-4.9,1.9-7.3c1.3-2.4,3.1-4.4,5.4-5.9c2.3-1.6,5-2.3,8.1-2.3
		C310.1,485.8,313.2,487.1,315.8,489.6z"/>
	<path class="st0" d="M393.3,576.4c0,0.7,0.2,1.2,0.6,1.6c0.4,0.4,0.9,0.6,1.5,0.6c1.2,0,2.2-0.5,3-1.5c0.8-1,1.4-1.5,1.7-1.5
		c0.5,0,0.9,0.3,1.2,1c0.3,0.7,0.4,1.5,0.4,2.3c0.1,2.6-0.9,5.3-3,8.1c-2.1,2.7-4.9,5-8.4,6.7s-7.3,2.6-11.4,2.6
		c-4.9,0-9.1-0.9-12.8-2.8c-3.6-1.9-6.1-4.3-7.5-7.3c-2.6,3.4-5.7,6-9.1,7.6c-3.4,1.7-7,2.5-10.9,2.5c-4.5,0-8.7-1.1-12.5-3.4
		c-3.9-2.2-6.9-5.5-9.2-9.6c-2.3-4.2-3.4-8.9-3.4-14.2c0-8.9,1.7-17.3,5.1-25.2c3.4-7.9,8.1-14.2,14.2-19.1c6.1-4.8,13-7.3,20.7-7.3
		c4.2,0,7.8,0.5,10.8,1.5c3,1,5.7,2.4,8.1,4.4l5-16.4c0.3-0.9,0.4-1.6,0.4-2.2c0-1.1-0.3-2-0.8-2.6c-0.5-0.7-1.2-1.4-2.1-2.1
		c-1-0.8-1.7-1.5-2.1-2.1c-0.4-0.6-0.5-1.4-0.2-2.3c0.6-2.2,3.7-4.2,9.2-5.9c5.6-1.7,11.4-2.5,17.5-2.5c5.7,0,9.9,1.1,12.5,3.2
		c2.7,2.2,4,5.1,4,8.8c0,2.2-0.3,4.3-1,6.3l-21,69C393.4,575.5,393.3,576.1,393.3,576.4z M363.9,531.5c-2.8,0-5.6,2.1-8.4,6.3
		c-2.7,4.2-4.9,9.3-6.6,15.3c-1.7,6-2.4,11.3-2.3,16.1c0,5.4,1.8,8.1,5.3,8.1c1.3,0,2.3-0.5,3.2-1.5c0.9-1,1.7-2.7,2.5-5.1
		l11.4-37.1C367.5,532.2,365.8,531.5,363.9,531.5z"/>
	<path class="st0" d="M472.6,523.5c5.6,4,8.4,9,8.4,15.2c0,1.9-0.2,3.6-0.6,5.1c-1.5,6.5-5.6,11.1-12.3,13.9
		c-6.7,2.8-14.6,4.2-23.7,4.2c-4.6,0-8.9-0.3-12.9-0.9c-0.1,5.1,1.3,8.7,4.1,10.7c2.8,2.1,6.8,3.1,11.9,3.1c2.3,0,4.6-0.3,6.7-0.8
		c2.2-0.5,4.9-1.3,8.2-2.4c2.7-1,4.6-1.5,5.6-1.5c1.1,0,1.6,0.6,1.6,1.9c0.1,3.4-1.2,7-3.8,10.8c-2.6,3.8-6.6,7-11.7,9.6
		c-5.2,2.6-11.4,4-18.8,4c-10.9,0-19.8-2.7-26.7-8.2c-6.9-5.5-10.4-13.4-10.4-23.9c0-2.9,0.4-6.4,1.2-10.3
		c2.4-12,7.8-21.1,16.1-27.2c8.3-6.1,18.3-9.2,30.2-9.2C458.1,517.5,467.1,519.5,472.6,523.5z M434.2,552.3c4.1,0,7.2-1.9,9.4-5.7
		c2.2-3.8,3.2-8.1,3.1-12.8c-0.1-2.7-0.9-4.1-2.3-4.1c-1.1,0-2.3,0.9-3.8,2.6c-1.5,1.7-2.9,4.3-4.3,7.7c-1.4,3.4-2.6,7.5-3.6,12.2
		C433,552.3,433.5,552.3,434.2,552.3z"/>
</g>
<g>
	<path class="st0" d="M35.4,811.8c-6.6-3-11.8-7.5-15.6-13.4c-3.9-5.9-5.8-13.1-5.8-21.5c0-5.9,1-12.2,3.1-19.1
		c4.5-14.7,11.3-25.3,20.4-31.8c9.1-6.5,18.8-9.8,29.2-9.8c5.6,0,10.5,0.8,14.8,2.5c4.3,1.7,8.3,4.1,11.9,7.2l4-3.1
		c2.6-2.1,4.9-3.5,6.7-4.3c1.8-0.8,3.8-1.2,6.1-1.2c2.4,0,4.4,0.5,5.9,1.6c1.5,1.1,2.2,2.6,2.2,4.7c0,1.1-0.2,2.2-0.6,3.2l-8.2,22.9
		c-0.9,2.6-1.9,4.5-3.2,5.6c-1.2,1.1-3.1,1.6-5.5,1.6c-2.5,0-4.6-0.9-6.2-2.7c-1.6-1.8-3.4-4.9-5.5-9.3c-2.3-4.6-4.3-7.6-5.7-9.1
		c-1.5-1.5-3.6-2.2-6.5-2.2c-4,0-7.9,2.5-11.6,7.4c-3.7,4.9-7.1,12.4-10.1,22.2c-2.5,8.3-3.8,15.3-3.8,20.8c0,4.9,0.9,8.5,2.8,10.9
		c1.9,2.4,4.4,3.6,7.5,3.6c4.6,0,8.4-1,11.4-3.1c3-2.1,6-4.8,9.2-8.4c2-2.2,3.5-3.7,4.8-4.8c1.2-1,2.5-1.5,3.9-1.5
		c1.8,0,3.6,0.9,5.6,2.6c2,1.8,2.9,3.5,2.8,5.3c0.1,2.2-1.6,5.5-5.2,10c-3.6,4.5-8.5,8.5-14.8,12.1c-6.3,3.6-13.5,5.4-21.5,5.4
		C49.3,816.3,42,814.8,35.4,811.8z"/>
	<path class="st0" d="M194.2,745.9c6.3,5.4,9.5,12.4,9.5,21.1c0,2.9-0.4,6.2-1.2,9.8c-1.9,8-5.3,15-10.4,21.1
		c-5.1,6-11.3,10.7-18.7,13.9c-7.4,3.3-15.4,4.9-24,4.9c-13.6,0-23.6-2.7-30.2-8.1c-6.5-5.4-9.8-12.6-9.8-21.6c0-3,0.4-6.4,1.2-10.1
		c1.9-7.6,5.4-14.4,10.6-20.3c5.2-5.9,11.6-10.5,19.2-13.8c7.6-3.3,15.7-4.9,24.3-4.9C178.1,737.8,187.9,740.5,194.2,745.9z
		 M157.8,756.4c-2.3,3.7-5,10.6-8.1,20.8c-3.1,10.2-4.7,17.3-4.7,21.4c0,2.2,0.3,3.6,1,4.3c0.7,0.7,1.6,1.1,2.8,1.1
		c2.1,0.2,4.2-1.6,6.4-5.3c2.2-3.7,5-11,8.3-21.7c3-9.5,4.5-16.4,4.5-20.7c0-2.1-0.3-3.5-1-4.3c-0.6-0.8-1.5-1.2-2.7-1.2
		C162.3,750.9,160.1,752.7,157.8,756.4z"/>
	<path class="st0" d="M295.1,795.2c-0.2,0.4-0.3,1-0.3,1.8c0,0.7,0.2,1.2,0.5,1.6c0.3,0.4,0.8,0.6,1.4,0.6c1.2,0,2.2-0.5,3-1.5
		c0.8-1,1.4-1.5,1.7-1.5c0.5,0,0.9,0.3,1.2,1c0.3,0.6,0.4,1.4,0.4,2.3c0.1,2.8-0.8,5.6-2.8,8.3c-2,2.7-4.8,4.9-8.6,6.6
		c-3.8,1.7-8.3,2.6-13.6,2.6c-6.5,0-11.6-1.5-15.4-4.5c-3.8-3-5.8-7-5.9-12c0-3.6,0.9-7.7,2.6-12.2l8.1-21.1
		c0.5-1.3,0.7-2.3,0.7-3.1c0-1.3-0.4-2.3-1.2-3c-0.8-0.7-1.8-1.1-3-1.1c-2.2,0-4.2,1-6.2,3c-2,2-3.4,4.5-4.3,7.4l-9.1,29.9
		c-0.4,1.1-0.6,2.1-0.6,3.1c0,1.2,0.2,2.1,0.7,2.9c0.5,0.7,1.2,1.5,2.1,2.3c0.7,0.6,1.2,1.1,1.5,1.6c0.3,0.5,0.3,1.1,0.1,1.8
		c-0.4,1.3-1.3,2.2-2.8,2.8s-3.8,0.9-6.9,0.9h-33.5c-2.5,0-4.4-0.4-5.5-1.2c-1.1-0.8-1.5-1.9-1.2-3.3c0.4-1.2,1.4-2.2,3.1-3.1
		c1.5-0.8,2.7-1.7,3.7-2.8c1-1.1,1.8-2.8,2.5-5.1l13.1-42.4c0.2-0.5,0.3-1.2,0.3-2.1c0-1.1-0.2-1.9-0.7-2.5
		c-0.4-0.6-1.2-1.3-2.1-2.2c-1-0.8-1.7-1.5-2.1-2.1c-0.4-0.6-0.4-1.4-0.1-2.3c0.6-2.2,3.7-4.2,9.2-5.9c5.6-1.7,11.4-2.6,17.5-2.6
		c4.9,0,8.8,1.3,11.6,4c2.8,2.7,4.1,6.4,3.8,11.2c4-5.8,8.3-9.8,12.8-12c4.5-2.2,9.4-3.3,14.7-3.3c6,0,10.8,1.8,14.5,5.4
		c3.7,3.6,5.5,8.3,5.5,14.1c0,3-0.5,6-1.5,9L295.1,795.2z"/>
	<path class="st0" d="M379.3,740.9c1,0.8,1.5,1.9,1.5,3.2c0,0.4-0.1,1.1-0.3,2.1c-1.3,4.3-4.2,6.5-8.8,6.5h-8.5l-11,36.2
		c-0.5,1.5-0.7,3-0.7,4.5c0,1.8,0.5,3,1.5,3.7c1,0.7,2.3,1,4.1,1c1.6,0,3.5-0.2,5.9-0.6c1.2-0.3,2.2-0.4,3.1-0.4
		c0.7,0,1.2,0.2,1.5,0.7c0.3,0.4,0.5,1,0.5,1.7c0.1,2-1.3,4.3-4.3,7.1s-7,5.2-12.1,7.2c-5.1,2-10.7,3-16.9,3c-6.7,0-12-1.5-16-4.5
		c-4-3-6-7.2-6-12.5c0-2.4,0.4-4.8,1.2-7l9.4-29.1c0.5-1.7,0.7-3,0.7-4c0-2-0.5-3.6-1.4-5c-0.9-1.4-2.2-2.8-3.9-4.3
		c-1.5-1.4-2.5-2.5-3.1-3.4c-0.6-0.9-0.7-2-0.4-3.3c0.4-1.3,1.2-2.2,2.5-2.9c1.3-0.7,3.3-1,6-1h8.2l9.2-9.2c3.2-3.2,6.2-5.5,8.9-6.7
		c2.7-1.3,6.2-1.9,10.5-1.9c6.2,0,9.2,2.3,9.2,7c0,1.5-0.2,2.8-0.6,4.1l-2.1,6.8h7.8C376.8,739.7,378.2,740.1,379.3,740.9z"/>
	<path class="st0" d="M451.8,744.1c6.7,4.2,10.1,10.5,10.1,19c0,3.2-0.6,6.9-1.8,11l-6,20.2c-0.1,0.4-0.1,0.9-0.1,1.5
		c0,1.6,0.6,2.3,1.9,2.3c1.2,0,2.2-0.5,3-1.5c0.8-1,1.4-1.5,1.7-1.5c0.5,0,0.9,0.3,1.2,1c0.3,0.7,0.5,1.5,0.5,2.3
		c0.1,2.6-0.9,5.3-3,8.1c-2.1,2.7-4.9,5-8.4,6.7s-7.4,2.6-11.6,2.6c-5.1,0-9.4-0.9-13.1-2.8c-3.6-1.9-6.1-4.6-7.5-8.2
		c-2.9,3.5-6.4,6.2-10.4,8.1c-4,1.9-8.3,2.9-12.9,2.9c-5.2,0-9.5-1-13.1-3c-3.5-2-6.1-4.6-7.8-7.8c-1.7-3.2-2.6-6.5-2.6-10.1
		c0-1.6,0.1-3.1,0.4-4.5c1.6-6.8,5-11.8,10.2-15.3c5.2-3.4,11.5-5.1,18.7-5.1c8.1,0,16.1,1.3,23.9,3.8l3.7-9.7
		c1.3-4.1,1.9-7.3,1.9-9.5c-0.1-2.3-0.9-4.1-2.3-5.3c-1.5-1.2-3.7-1.8-6.7-1.8c0.6,1.6,0.9,3.2,0.9,4.8c0,3.6-1.4,6.7-4.1,9.4
		c-2.7,2.6-6.7,4-11.7,4c-4.8,0-8.5-1-11.2-3.2c-2.7-2.1-4-4.7-4-7.8c0-4.9,2.7-9,8.2-12.2c5.5-3.2,13.8-4.8,25.1-4.8
		C436.1,737.8,445.1,739.9,451.8,744.1z M409.9,785.4c-1.7,2.1-2.6,4.4-2.6,6.8c0,1.6,0.4,2.8,1.1,3.8c0.7,1,1.8,1.5,3.2,1.5
		c1.3,0,2.7-0.5,4.2-1.5c1.5-1,2.6-2.6,3.3-4.6l3.1-8.7c-1.7-0.3-3.5-0.4-5.6-0.4C413.9,782.3,411.6,783.3,409.9,785.4z"/>
	<path class="st0" d="M532.9,739.7c4.5,1.7,8,4.1,10.5,7c2.5,3,3.7,6.3,3.7,9.9c0,3.9-1.3,7.1-4,9.7c-2.7,2.5-6.3,3.8-10.9,3.8
		c-4.7,0-8.4-1.2-11-3.6c-2.6-2.4-4-5.6-4-9.8c0-2,0.3-4,0.9-6.2c-4.1,1.1-7.8,3.2-10.9,6.4c-3.2,3.2-5.3,7.4-6.4,12.5
		c-0.6,2.9-0.9,5.6-0.9,7.9c0,5.3,1.5,9.3,4.4,12c2.9,2.7,7.1,4.1,12.6,4.1c3.1,0,5.8-0.3,8.1-1c2.2-0.6,4.5-1.5,6.9-2.6
		c2-1,3.4-1.5,4.3-1.5c0.6,0,1,0.1,1.2,0.4c0.2,0.2,0.3,0.8,0.3,1.5c0.1,3.6-1.4,7.4-4.5,11.4c-3.1,4-7.3,7.3-12.8,10
		c-5.4,2.7-11.5,4-18.3,4c-7,0-13.3-1.3-18.7-3.9c-5.4-2.6-9.6-6.3-12.6-11.2c-3-4.8-4.5-10.5-4.5-16.9c0-3,0.4-6.4,1.2-10.1
		c2.6-12.1,8.5-21.3,17.5-27.4c9-6.2,19.8-9.2,32.2-9.2C523.2,737.1,528.4,737.9,532.9,739.7z"/>
	<path class="st0" d="M614.9,740.9c1,0.8,1.5,1.9,1.5,3.2c0,0.4-0.1,1.1-0.3,2.1c-1.3,4.3-4.2,6.5-8.8,6.5h-8.5l-11,36.2
		c-0.5,1.5-0.7,3-0.7,4.5c0,1.8,0.5,3,1.5,3.7c1,0.7,2.3,1,4.1,1c1.6,0,3.5-0.2,5.9-0.6c1.2-0.3,2.2-0.4,3.1-0.4
		c0.7,0,1.2,0.2,1.5,0.7c0.3,0.4,0.5,1,0.5,1.7c0.1,2-1.3,4.3-4.3,7.1c-3,2.8-7,5.2-12.1,7.2c-5.1,2-10.7,3-16.9,3
		c-6.7,0-12-1.5-16-4.5c-4-3-6-7.2-6-12.5c0-2.4,0.4-4.8,1.2-7l9.4-29.1c0.5-1.7,0.7-3,0.7-4c0-2-0.5-3.6-1.4-5
		c-0.9-1.4-2.2-2.8-3.9-4.3c-1.5-1.4-2.5-2.5-3.1-3.4c-0.6-0.9-0.7-2-0.4-3.3c0.4-1.3,1.2-2.2,2.5-2.9c1.3-0.7,3.3-1,6-1h8.2
		l9.2-9.2c3.2-3.2,6.2-5.5,8.9-6.7c2.7-1.3,6.2-1.9,10.5-1.9c6.2,0,9.2,2.3,9.2,7c0,1.5-0.2,2.8-0.6,4.1l-2.1,6.8h7.8
		C612.4,739.7,613.9,740.1,614.9,740.9z"/>
</g>
<text transform="matrix(1 0 0 1 -1146.6345 92.0539)" class="st0" style="font-family:'Shrikhand-Regular'; font-size:146.7281px;">About us</text>
<text transform="matrix(1 0 0 1 -1081.0157 321.2563)" class="st0" style="font-family:'Shrikhand-Regular'; font-size:146.7281px;">Works</text>
<text transform="matrix(1 0 0 1 -1146.2448 577.2826)" class="st0" style="font-family:'Shrikhand-Regular'; font-size:146.7281px;">Inside</text>
<text transform="matrix(1 0 0 1 -1146.2448 796.8382)" class="st0" style="font-family:'Shrikhand-Regular'; font-size:146.7281px;">Contact</text>
</svg>
