<?xml version="1.0" encoding="utf-8"?>
<!-- Generator: Adobe Illustrator 26.5.1, SVG Export Plug-In . SVG Version: 6.00 Build 0)  -->
<svg version="1.1" id="레이어_1" xmlns="http://www.w3.org/2000/svg" xmlns:xlink="http://www.w3.org/1999/xlink" x="0px"
	 y="0px" viewBox="0 0 149.5 49.9" style="enable-background:new 0 0 149.5 49.9;" xml:space="preserve">
<style type="text/css">
	.st0{fill:#B698C5;}
</style>
<g>
	<path class="st0" d="M59.3,12.7c-0.6,0.9-1.3,1.6-2.2,2.1s-1.8,0.7-2.6,0.7s-1.6-0.2-2.3-0.6c-0.7-0.4-1.2-0.9-1.4-1.4L37.9,35
		c-1,1.7-1.9,2.8-2.7,3.5s-1.7,1-2.7,1c-2.4,0-3.7-1.5-4-4.5l-1.7-15.5L16.2,35c-1.2,1.8-2.2,3-3,3.6s-1.6,0.9-2.6,0.9
		c-2.1,0-3.4-1.7-3.9-5.1L3.3,10.6C3.2,9.9,3,9.3,2.7,8.9S2,8.1,1.6,7.7C1.3,7.4,1.1,7.2,0.9,7C0.8,6.8,0.7,6.6,0.7,6.3
		C0.5,5,1.3,4.3,3,4.3h13.1c0.8,0,1.4,0.2,1.8,0.5s0.6,0.8,0.6,1.3c0,0.3-0.1,0.6-0.2,0.8c-0.2,0.3-0.3,0.5-0.5,0.7
		C17.4,8,17.1,8.4,17,8.8c-0.1,0.4-0.2,0.9-0.2,1.5L18.2,23L26,11.9l-0.2-1.3c-0.1-0.7-0.2-1.2-0.5-1.6c-0.3-0.4-0.7-0.8-1.2-1.2
		c-0.4-0.3-0.6-0.6-0.7-0.8c-0.1-0.2-0.2-0.4-0.2-0.7c-0.2-1.3,0.6-2,2.3-2h13.2c0.8,0,1.4,0.2,1.8,0.5c0.4,0.3,0.6,0.8,0.6,1.3
		s-0.2,1-0.7,1.5C40,8,39.8,8.4,39.6,8.8s-0.2,0.9-0.2,1.5L40,21.8l7.1-12.5c1.2-2,2.3-3.4,3.4-4.2c1.1-0.8,2.5-1.2,4.3-1.2
		c1.6,0,2.9,0.5,3.9,1.4c1,1,1.5,2.2,1.5,3.9C60.2,10.7,59.9,11.8,59.3,12.7z"/>
	<path class="st0" d="M72.7,12.8c1,0.8,1.4,1.8,1.4,3.2c0,0.8-0.1,1.6-0.4,2.3l-4.9,15.8c-0.1,0.4-0.2,0.8-0.2,1.1
		c0,0.5,0.1,0.8,0.3,1.1c0.2,0.3,0.4,0.5,0.7,0.8c0.2,0.2,0.4,0.4,0.5,0.6c0.1,0.2,0.1,0.4,0.1,0.6c-0.2,0.5-0.5,0.8-1.1,1
		c-0.5,0.2-1.3,0.3-2.4,0.3h-12c-0.9,0-1.6-0.1-2-0.4c-0.4-0.3-0.6-0.7-0.4-1.2c0.1-0.4,0.5-0.8,1.1-1.1c0.5-0.3,1-0.6,1.3-1
		c0.4-0.4,0.7-1,0.9-1.8l4.6-15.3c0.1-0.3,0.2-0.6,0.2-0.8c0-0.4-0.1-0.7-0.3-0.9s-0.4-0.5-0.8-0.7c-0.4-0.3-0.6-0.5-0.7-0.7
		c-0.1-0.2-0.2-0.5-0.1-0.8c0.2-0.8,1.3-1.5,3.3-2.1s4.1-0.9,6.3-0.9C70.3,11.6,71.8,12,72.7,12.8z M75.2,1.3c0.9,0.9,1.4,2,1.4,3.3
		c0,0.9-0.2,1.8-0.7,2.7s-1.1,1.6-2,2.1S72,10.2,71,10.2c-1.3,0-2.5-0.4-3.4-1.3s-1.4-2-1.4-3.4c0-0.9,0.2-1.8,0.7-2.6
		c0.5-0.9,1.1-1.6,2-2.1C69.7,0.2,70.7,0,71.8,0C73.1-0.1,74.3,0.4,75.2,1.3z"/>
	<path class="st0" d="M98.8,12.7c0.4,0.3,0.6,0.7,0.6,1.2c0,0.1,0,0.4-0.1,0.7c-0.5,1.5-1.5,2.3-3.2,2.3H93l-4,13
		c-0.2,0.5-0.3,1.1-0.3,1.6c0,0.6,0.2,1.1,0.5,1.3c0.4,0.2,0.8,0.4,1.5,0.4c0.6,0,1.3-0.1,2.1-0.2c0.4-0.1,0.8-0.2,1.1-0.2
		c0.2,0,0.4,0.1,0.6,0.2c0.1,0.2,0.2,0.4,0.2,0.6c0,0.7-0.5,1.6-1.6,2.6s-2.5,1.9-4.4,2.6c-1.8,0.7-3.9,1.1-6.1,1.1
		c-2.4,0-4.3-0.5-5.8-1.6c-1.4-1.1-2.2-2.6-2.2-4.5c0-0.9,0.1-1.7,0.4-2.5l3.4-10.5c0.2-0.6,0.3-1.1,0.3-1.4c0-0.7-0.2-1.3-0.5-1.8
		s-0.8-1-1.4-1.5c-0.5-0.5-0.9-0.9-1.1-1.2s-0.3-0.7-0.2-1.2c0.1-0.5,0.4-0.8,0.9-1.1c0.5-0.2,1.2-0.4,2.2-0.4h3l3.3-3.3
		c1.2-1.2,2.2-2,3.2-2.4c1-0.5,2.2-0.7,3.8-0.7c2.2,0,3.3,0.8,3.3,2.5c0,0.5-0.1,1-0.2,1.5l-0.7,2.4h2.8
		C97.9,12.3,98.4,12.4,98.8,12.7z"/>
	<path class="st0" d="M118.9,12.7c0.4,0.3,0.6,0.7,0.6,1.2c0,0.1,0,0.4-0.1,0.7c-0.5,1.5-1.5,2.3-3.2,2.3h-3.1l-4,13
		c-0.2,0.5-0.3,1.1-0.3,1.6c0,0.6,0.2,1.1,0.5,1.3c0.4,0.2,0.8,0.4,1.5,0.4c0.6,0,1.3-0.1,2.1-0.2c0.4-0.1,0.8-0.2,1.1-0.2
		c0.2,0,0.4,0.1,0.6,0.2c0.1,0.2,0.2,0.4,0.2,0.6c0,0.7-0.5,1.6-1.6,2.6s-2.5,1.9-4.4,2.6c-1.8,0.7-3.9,1.1-6.1,1.1
		c-2.4,0-4.3-0.5-5.8-1.6c-1.4-1.1-2.2-2.6-2.2-4.5c0-0.9,0.1-1.7,0.4-2.5l3.4-10.5c0.2-0.6,0.3-1.1,0.3-1.4c0-0.7-0.2-1.3-0.5-1.8
		s-0.8-1-1.4-1.5c-0.5-0.5-0.9-0.9-1.1-1.2s-0.3-0.7-0.2-1.2c0.1-0.5,0.4-0.8,0.9-1.1c0.5-0.2,1.2-0.4,2.2-0.4h3l3.3-3.3
		c1.2-1.2,2.2-2,3.2-2.4c1-0.5,2.2-0.7,3.8-0.7c2.2,0,3.3,0.8,3.3,2.5c0,0.5-0.1,1-0.2,1.5l-0.7,2.4h2.8
		C118,12.3,118.5,12.4,118.9,12.7z"/>
	<path class="st0" d="M148.1,13.5c0.9,1.2,1.4,2.9,1.4,5.1c0,1.9-0.3,3.9-1,6c-1.3,4.3-3.4,8.4-6.3,12.2c-2.9,3.8-6.2,6.9-9.9,9.2
		s-7.4,3.5-11.1,3.5c-1.8,0-3.4-0.3-4.7-1c-1.3-0.6-2.3-1.5-3-2.5c-0.7-1.1-1-2.2-1-3.4c0-0.5,0.1-1.1,0.3-1.7
		c0.3-1,0.8-1.7,1.6-2.3c0.7-0.5,1.6-0.8,2.6-0.8c1.6,0,2.9,0.6,4,1.7c1,1.1,1.7,2.6,2,4.6c2.3-0.1,4.3-1.1,6.2-2.9
		c-1.8-0.3-3.1-0.9-4-1.8c-0.9-0.9-1.5-2.3-1.8-4.2l-2.1-12.9c-0.1-0.7-0.3-1.1-0.4-1.4c-0.2-0.3-0.4-0.4-0.8-0.4
		c-0.2,0-0.5,0.1-0.9,0.4c-0.3,0.2-0.6,0.4-0.7,0.4c-0.3,0-0.4-0.3-0.4-0.9c0-0.5,0.1-1,0.3-1.6c0.6-2,1.8-3.7,3.5-5.1
		s3.7-2.1,6-2.1s3.9,0.7,5,2s1.8,3.4,2.1,6.2l1.6,11.6c0.1,0.9,0.4,1.3,1,1.3s1.4-0.6,2.2-1.7c0.8-1.1,1.7-2.8,2.5-4.9
		c-1.1-1-1.9-2-2.4-3.3c-0.6-1.2-0.8-2.6-0.8-4c0-1.1,0.1-2.1,0.4-3c0.4-1.4,1.1-2.5,2-3.2s1.9-1.1,3-1.1
		C145.9,11.6,147.2,12.2,148.1,13.5z"/>
</g>
</svg>
