<?xml version="1.0" encoding="utf-8"?>
<!-- Generator: Adobe Illustrator 26.5.1, SVG Export Plug-In . SVG Version: 6.00 Build 0)  -->
<svg version="1.1" id="레이어_1" xmlns="http://www.w3.org/2000/svg" xmlns:xlink="http://www.w3.org/1999/xlink" x="0px"
	 y="0px" viewBox="0 0 148.9 73.1" style="enable-background:new 0 0 148.9 73.1;" xml:space="preserve">
<style type="text/css">
	.st0{fill:#FFFFFF;}
</style>
<g>
	<g>
		<path class="st0" d="M58.7,35.5c-0.6,0.9-1.3,1.6-2.2,2.1s-1.8,0.7-2.6,0.7s-1.6-0.2-2.3-0.6c-0.7-0.4-1.2-0.9-1.4-1.4L37.3,57.7
			c-1,1.7-1.9,2.8-2.7,3.5s-1.7,1-2.7,1c-2.4,0-3.7-1.5-4-4.5l-1.7-15.5L15.5,57.7c-1.2,1.8-2.2,3-3,3.6s-1.6,0.9-2.6,0.9
			c-2.1,0-3.4-1.7-3.9-5.1L2.7,33.3c-0.1-0.7-0.3-1.3-0.6-1.7S1.4,30.8,1,30.4c-0.3-0.3-0.5-0.5-0.7-0.7C0.1,29.5,0,29.3,0,29.1
			c-0.2-1.3,0.6-2,2.3-2h13.1c0.8,0,1.4,0.2,1.8,0.5s0.6,0.8,0.6,1.3c0,0.3-0.1,0.6-0.2,0.8c-0.2,0.3-0.3,0.5-0.5,0.7
			c-0.4,0.4-0.7,0.8-0.8,1.2c-0.2,0.4-0.2,0.9-0.2,1.5l1.4,12.7l7.9-11.3l-0.2-1.3c-0.1-0.7-0.2-1.2-0.5-1.6s-0.7-0.8-1.2-1.2
			c-0.4-0.3-0.6-0.6-0.7-0.8c-0.1-0.2-0.2-0.4-0.2-0.7c-0.2-1.3,0.6-2,2.3-2h13.2c0.8,0,1.4,0.2,1.8,0.5c0.4,0.3,0.6,0.8,0.6,1.3
			s-0.2,1-0.7,1.5c-0.4,0.4-0.6,0.8-0.8,1.2c-0.2,0.4-0.2,0.9-0.2,1.5l0.6,11.5l7.1-12.5c1.2-2,2.3-3.4,3.4-4.2
			c1.1-0.8,2.5-1.2,4.3-1.2c1.6,0,2.9,0.5,3.9,1.4c1,1,1.5,2.2,1.5,3.9C59.6,33.4,59.3,34.5,58.7,35.5z"/>
		<path class="st0" d="M72.1,35.5c1,0.8,1.4,1.8,1.4,3.2c0,0.8-0.1,1.6-0.4,2.3l-4.9,15.8c-0.1,0.4-0.2,0.8-0.2,1.1
			c0,0.5,0.1,0.8,0.3,1.1c0.2,0.3,0.4,0.5,0.7,0.8c0.2,0.2,0.4,0.4,0.5,0.6c0.1,0.2,0.1,0.4,0.1,0.6c-0.2,0.5-0.5,0.8-1.1,1
			c-0.5,0.2-1.3,0.3-2.4,0.3h-12c-0.9,0-1.6-0.1-2-0.4c-0.4-0.3-0.6-0.7-0.4-1.2c0.1-0.4,0.5-0.8,1.1-1.1c0.5-0.3,1-0.6,1.3-1
			c0.4-0.4,0.7-1,0.9-1.8l4.6-15.3c0.1-0.3,0.2-0.6,0.2-0.8c0-0.4-0.1-0.7-0.3-0.9s-0.4-0.5-0.8-0.7c-0.4-0.3-0.6-0.5-0.7-0.7
			c-0.1-0.2-0.2-0.5-0.1-0.8c0.2-0.8,1.3-1.5,3.3-2.1s4.1-0.9,6.3-0.9C69.6,34.3,71.1,34.7,72.1,35.5z M74.6,24
			c0.9,0.9,1.4,2,1.4,3.3c0,0.9-0.2,1.8-0.7,2.7c-0.5,0.9-1.1,1.6-2,2.1c-0.9,0.5-1.8,0.8-2.9,0.8c-1.3,0-2.5-0.4-3.4-1.3
			c-0.9-0.9-1.4-2-1.4-3.4c0-0.9,0.2-1.8,0.7-2.6c0.5-0.9,1.1-1.6,2-2.1c0.8-0.6,1.8-0.8,2.9-0.8C72.5,22.7,73.6,23.1,74.6,24z"/>
		<path class="st0" d="M98.2,35.4c0.4,0.3,0.6,0.7,0.6,1.2c0,0.1,0,0.4-0.1,0.7c-0.5,1.5-1.5,2.3-3.2,2.3h-3.1l-4,13
			c-0.2,0.5-0.3,1.1-0.3,1.6c0,0.6,0.2,1.1,0.5,1.3c0.4,0.2,0.8,0.4,1.5,0.4c0.6,0,1.3-0.1,2.1-0.2c0.4-0.1,0.8-0.2,1.1-0.2
			c0.2,0,0.4,0.1,0.6,0.2c0.1,0.2,0.2,0.4,0.2,0.6c0,0.7-0.5,1.6-1.6,2.6s-2.5,1.9-4.4,2.6c-1.8,0.7-3.9,1.1-6.1,1.1
			c-2.4,0-4.3-0.5-5.8-1.6c-1.4-1.1-2.2-2.6-2.2-4.5c0-0.9,0.1-1.7,0.4-2.5L78,43.6c0.2-0.6,0.3-1.1,0.3-1.4c0-0.7-0.2-1.3-0.5-1.8
			s-0.8-1-1.4-1.5c-0.5-0.5-0.9-0.9-1.1-1.2S75,37,75.1,36.5c0.1-0.5,0.4-0.8,0.9-1.1c0.5-0.2,1.2-0.4,2.2-0.4h3l3.3-3.3
			c1.2-1.2,2.2-2,3.2-2.4c1-0.5,2.2-0.7,3.8-0.7c2.2,0,3.3,0.8,3.3,2.5c0,0.5-0.1,1-0.2,1.5L93.8,35h2.8
			C97.3,35,97.8,35.2,98.2,35.4z"/>
		<path class="st0" d="M118.2,35.4c0.4,0.3,0.6,0.7,0.6,1.2c0,0.1,0,0.4-0.1,0.7c-0.5,1.5-1.5,2.3-3.2,2.3h-3.1l-4,13
			c-0.2,0.5-0.3,1.1-0.3,1.6c0,0.6,0.2,1.1,0.5,1.3c0.4,0.2,0.8,0.4,1.5,0.4c0.6,0,1.3-0.1,2.1-0.2c0.4-0.1,0.8-0.2,1.1-0.2
			c0.2,0,0.4,0.1,0.6,0.2c0.1,0.2,0.2,0.4,0.2,0.6c0,0.7-0.5,1.6-1.6,2.6s-2.5,1.9-4.4,2.6c-1.8,0.7-3.9,1.1-6.1,1.1
			c-2.4,0-4.3-0.5-5.8-1.6c-1.4-1.1-2.2-2.6-2.2-4.5c0-0.9,0.1-1.7,0.4-2.5l3.4-10.5c0.2-0.6,0.3-1.1,0.3-1.4c0-0.7-0.2-1.3-0.5-1.8
			s-0.8-1-1.4-1.5c-0.5-0.5-0.9-0.9-1.1-1.2s-0.3-0.7-0.2-1.2c0.1-0.5,0.4-0.8,0.9-1.1c0.5-0.2,1.2-0.4,2.2-0.4h3l3.3-3.3
			c1.2-1.2,2.2-2,3.2-2.4c1-0.5,2.2-0.7,3.8-0.7c2.2,0,3.3,0.8,3.3,2.5c0,0.5-0.1,1-0.2,1.5l-0.7,2.4h2.8
			C117.3,35,117.9,35.2,118.2,35.4z"/>
		<path class="st0" d="M147.5,36.2c0.9,1.2,1.4,2.9,1.4,5.1c0,1.9-0.3,3.9-1,6c-1.3,4.3-3.4,8.4-6.3,12.2c-2.9,3.8-6.2,6.9-9.9,9.2
			c-3.7,2.3-7.4,3.5-11.1,3.5c-1.8,0-3.4-0.3-4.7-1c-1.3-0.6-2.3-1.5-3-2.5c-0.7-1.1-1-2.2-1-3.4c0-0.5,0.1-1.1,0.3-1.7
			c0.3-1,0.8-1.7,1.6-2.3c0.7-0.5,1.6-0.8,2.6-0.8c1.6,0,2.9,0.6,4,1.7c1,1.1,1.7,2.6,2,4.6c2.3-0.1,4.3-1.1,6.2-2.9
			c-1.8-0.3-3.1-0.9-4-1.8c-0.9-0.9-1.5-2.3-1.8-4.2L120.7,45c-0.1-0.7-0.3-1.1-0.4-1.4c-0.2-0.3-0.4-0.4-0.8-0.4
			c-0.2,0-0.5,0.1-0.9,0.4c-0.3,0.2-0.6,0.4-0.7,0.4c-0.3,0-0.4-0.3-0.4-0.9c0-0.5,0.1-1,0.3-1.6c0.6-2,1.8-3.7,3.5-5.1
			c1.7-1.4,3.7-2.1,6-2.1c2.3,0,3.9,0.7,5,2c1.1,1.3,1.8,3.4,2.1,6.2l1.6,11.6c0.1,0.9,0.4,1.3,1,1.3s1.4-0.6,2.2-1.7
			c0.8-1.1,1.7-2.8,2.5-4.9c-1.1-1-1.9-2-2.4-3.3c-0.6-1.2-0.8-2.6-0.8-4c0-1.1,0.1-2.1,0.4-3c0.4-1.4,1.1-2.5,2-3.2s1.9-1.1,3-1.1
			C145.3,34.3,146.5,35,147.5,36.2z"/>
	</g>
	<g>
		<g>
			<path class="st0" d="M29.1,11.7c0.4-0.2,0.6-0.3,1-0.5c0.1,2.3,0.2,3.5,0.5,5.8c-0.4,0.2-0.6,0.3-0.9,0.5c-1.2-1.2-1.8-1.8-3-3
				c0.3,1.7,0.4,2.5,0.7,4.2c-0.4,0.2-0.6,0.3-0.9,0.5c-1.7-1.5-2.6-2.3-4.4-3.7c0.4-0.2,0.6-0.3,0.9-0.5c1.4,1.2,2.1,1.9,3.5,3.2
				c-0.4-1.8-0.5-2.8-0.9-4.6c0.3-0.2,0.5-0.3,0.9-0.4c1.3,1.3,2,2,3.2,3.4C29.4,14.5,29.3,13.5,29.1,11.7z"/>
			<path class="st0" d="M36.6,11.7c-1.6,0.6-2.4,1-4,1.7c0.5,1,1.4,1.2,2.2,0.9c0.6-0.3,1.1-0.8,1.1-1.5c0.4,0,0.6-0.1,0.9-0.1
				c0,1.1-0.7,1.9-1.7,2.3c-1.3,0.5-2.7,0.3-3.4-1.3c-0.1-0.2-0.2-0.3-0.3-0.6c-0.7-1.5,0.1-2.8,1.4-3.4c1.4-0.6,2.8-0.2,3.5,1.4
				C36.5,11.4,36.6,11.5,36.6,11.7z M35.4,11.3c-0.4-0.9-1.3-1.2-2.2-0.8c-0.8,0.3-1.3,1.1-0.9,2.1C33.6,12.1,34.2,11.8,35.4,11.3z"
				/>
			<path class="st0" d="M44.2,7.9c0.4,1.3,0.6,2,1,3.3c-0.3,0.1-0.5,0.2-0.8,0.3c-0.1-0.3-0.2-0.4-0.3-0.7c-0.1,0.6-0.6,1.1-1.3,1.3
				c-0.1,0-0.2,0.1-0.4,0.1c-1,0.3-2-0.1-2.3-1s0.2-1.8,1.5-2.3c0.7-0.2,1-0.3,1.7-0.5c0-0.1,0-0.1-0.1-0.2
				c-0.2-0.7-0.9-1.1-1.8-0.8c-0.6,0.2-1,0.6-1.1,1.2c-0.4,0-0.6,0-1,0c0.2-0.8,0.8-1.6,1.9-2C42.6,6.2,43.8,6.6,44.2,7.9z
				 M42.7,11.3c0.7-0.2,1.2-0.8,1.1-1.5c-0.1-0.2-0.1-0.4-0.2-0.6c-0.6,0.2-1,0.3-1.6,0.5c-0.8,0.3-1.1,0.7-0.9,1.2
				c0.2,0.5,0.7,0.7,1.3,0.5C42.5,11.3,42.6,11.3,42.7,11.3z"/>
			<path class="st0" d="M48.2,4.7c0,0.3,0,0.5,0,0.9c-0.2,0-0.5,0-0.7,0.1c-0.7,0.2-1.1,0.9-0.9,1.8c0.3,1.3,0.5,1.9,0.9,3.1
				c-0.4,0.1-0.6,0.2-0.9,0.3c-0.6-2.1-0.9-3.1-1.5-5.2c0.4-0.1,0.5-0.2,0.9-0.3c0.1,0.3,0.2,0.5,0.3,0.8c0.1-0.6,0.5-1.1,1.2-1.3
				C47.7,4.7,48,4.7,48.2,4.7z"/>
			<path class="st0" d="M54.4,6.5c-1.7,0.3-2.5,0.5-4.2,0.9c0.3,1.1,1.1,1.5,2,1.3c0.7-0.2,1.2-0.6,1.3-1.3c0.4,0,0.6,0.1,0.9,0.1
				c-0.2,1-1,1.7-2.1,2c-1.3,0.3-2.7-0.2-3.1-1.9C49.1,7.4,49.1,7.2,49,7c-0.4-1.6,0.6-2.8,2-3.1c1.4-0.3,2.8,0.3,3.1,2
				C54.4,6.1,54.4,6.2,54.4,6.5z M53.3,5.9c-0.2-0.9-1-1.4-2-1.2c-0.9,0.2-1.4,0.9-1.3,1.9C51.4,6.3,52,6.2,53.3,5.9z"/>
			<path class="st0" d="M61.4,0.2c0.4,0,0.6-0.1,1-0.1c0.3,3,0.5,4.5,0.8,7.4c-0.4,0-0.5,0.1-0.9,0.1c-0.1-0.3-0.1-0.5-0.1-0.8
				c-0.4,0.6-1,1-1.7,1.1c-1.2,0.2-2.4-0.6-2.7-2.1c0-0.3-0.1-0.4-0.1-0.6c-0.3-1.6,0.8-2.7,2-2.9c0.8-0.1,1.5,0.1,2.1,0.6
				C61.6,1.9,61.6,1.3,61.4,0.2z M62,5.2c0-0.2,0-0.3,0-0.6c-0.2-1.1-1-1.6-1.9-1.4c-0.9,0.1-1.6,0.8-1.4,1.9c0,0.2,0.1,0.4,0.1,0.6
				c0.2,1.1,1,1.6,1.9,1.5C61.5,7,62.2,6.3,62,5.2z"/>
			<path class="st0" d="M69,3.6c0.1,1.4,0.1,2.1,0.2,3.5c-0.4,0-0.5,0-0.9,0c0-0.3-0.1-0.4-0.1-0.7c-0.3,0.5-0.8,0.9-1.6,1
				c-0.1,0-0.2,0-0.4,0c-1,0.1-1.9-0.5-2-1.5s0.6-1.7,2-1.8C66.9,4,67.2,4,67.9,4c0-0.1,0-0.1,0-0.2c0-0.8-0.6-1.3-1.5-1.2
				C65.7,2.7,65.3,3,65,3.5c-0.4-0.1-0.6-0.2-0.9-0.3c0.3-0.8,1.2-1.4,2.3-1.4C67.9,1.5,69,2.2,69,3.6z M66.8,6.5
				c0.7-0.1,1.3-0.5,1.4-1.2c0-0.3,0-0.4,0-0.6c-0.7,0-1,0.1-1.7,0.1c-0.8,0.1-1.2,0.4-1.2,1c0,0.5,0.5,0.8,1.1,0.8
				C66.5,6.5,66.6,6.5,66.8,6.5z"/>
			<path class="st0" d="M73.6,6.8C73.3,6.9,72.8,7,72.4,7c-0.9,0-1.5-0.4-1.5-1.3c0-1.3-0.1-2-0.1-3.3c-0.4,0-0.6,0-1.1,0
				c0-0.3,0-0.5,0-0.8c0.4,0,0.6,0,1.1,0c0-0.6,0-0.9-0.1-1.5c0.4,0,0.6,0,1,0c0,0.6,0,0.9,0,1.5c0.6,0,0.9,0,1.5,0
				c0,0.3,0,0.5,0,0.8c-0.6,0-0.9,0-1.5,0c0,1.3,0,1.9,0.1,3.2c0,0.5,0.3,0.6,0.6,0.6c0.3,0,0.5-0.1,0.8-0.2
				C73.4,6.3,73.5,6.4,73.6,6.8z"/>
			<path class="st0" d="M79,3.5c0,1.4-0.1,2.1-0.1,3.5c-0.4,0-0.5,0-0.9,0c0-0.3,0-0.4,0-0.7c-0.3,0.5-0.9,0.8-1.7,0.8
				c-0.1,0-0.2,0-0.4,0c-1,0-1.8-0.7-1.8-1.7s0.8-1.7,2.2-1.6c0.7,0,1,0,1.7,0c0-0.1,0-0.1,0-0.2c0-0.8-0.4-1.3-1.4-1.3
				c-0.7,0-1.2,0.3-1.4,0.7c-0.4-0.2-0.5-0.2-0.9-0.4c0.4-0.7,1.3-1.2,2.4-1.2C78.1,1.4,79.1,2.2,79,3.5z M76.5,6.2
				c0.7,0,1.4-0.4,1.5-1c0-0.3,0-0.4,0-0.6c-0.7,0-1,0-1.7,0c-0.9,0-1.3,0.3-1.3,0.8s0.4,0.9,1.1,0.9C76.3,6.2,76.4,6.2,76.5,6.2z"
				/>
			<path class="st0" d="M83.1,5.6c0.4,0.7,1,1.1,1.7,1.2c0.7,0.1,1.3-0.1,1.3-0.6c0.1-0.5-0.3-0.7-0.9-1c-0.3-0.1-0.4-0.2-0.7-0.3
				c-0.9-0.3-1.6-0.8-1.6-1.8c0.1-1,1-1.4,2.2-1.3C86.3,2,87,2.6,87.4,3.3c-0.3,0.2-0.5,0.2-0.8,0.4c-0.3-0.6-0.9-1-1.5-1.1
				c-0.7-0.1-1.1,0.2-1.2,0.6c0,0.4,0.3,0.7,0.9,0.9c0.3,0.1,0.4,0.2,0.7,0.3c0.9,0.3,1.7,0.8,1.6,1.8s-1.2,1.4-2.4,1.3
				c-1.1-0.1-2-0.6-2.4-1.6C82.6,5.8,82.8,5.7,83.1,5.6z"/>
			<path class="st0" d="M88.2,5.5c0-0.3,0.1-0.4,0.1-0.7c0.2-1.6,1.6-2.3,3-2.1s2.5,1.3,2.2,2.9c-0.1,0.3-0.1,0.4-0.1,0.7
				c-0.3,1.6-1.7,2.2-3,2C89,8.1,88,7.1,88.2,5.5z M92.4,6.1c0-0.3,0.1-0.4,0.1-0.7c0.2-1.1-0.5-1.8-1.4-1.9
				c-0.9-0.1-1.8,0.3-1.9,1.4c0,0.3-0.1,0.4-0.1,0.7c-0.2,1.1,0.5,1.8,1.4,1.9C91.4,7.6,92.2,7.2,92.4,6.1z"/>
			<path class="st0" d="M94.2,8.8c0.6-2.9,0.9-4.4,1.5-7.3c0.4,0.1,0.6,0.1,1,0.2c-0.6,2.9-0.9,4.4-1.5,7.3
				C94.8,9,94.6,8.9,94.2,8.8z"/>
			<path class="st0" d="M101.6,5c0.4,0.1,0.6,0.2,1,0.3c-0.6,2.1-0.9,3.1-1.4,5.2c-0.3-0.1-0.5-0.1-0.9-0.2c0.1-0.3,0.1-0.5,0.1-0.8
				c-0.5,0.4-1.2,0.6-2,0.4c-1.2-0.3-1.9-1.4-1.6-2.7C97.2,6,97.4,5.3,97.7,4c0.4,0.1,0.6,0.1,1,0.2c-0.3,1.3-0.4,1.9-0.7,3.2
				c-0.2,0.9,0.2,1.5,1,1.8c0.8,0.2,1.6-0.2,1.9-1C101.1,6.9,101.3,6.3,101.6,5z"/>
			<path class="st0" d="M105.7,11.7c-0.4,0.1-0.8,0-1.2-0.1c-0.8-0.3-1.3-0.9-1-1.8c0.4-1.3,0.6-1.9,0.9-3.2c-0.4-0.1-0.6-0.2-1-0.3
				c0.1-0.3,0.1-0.5,0.2-0.8c0.4,0.1,0.6,0.2,1,0.3c0.2-0.6,0.3-0.9,0.4-1.4c0.4,0.1,0.6,0.2,1,0.3c-0.2,0.6-0.3,0.9-0.4,1.4
				c0.6,0.2,0.9,0.3,1.5,0.5c-0.1,0.3-0.2,0.5-0.3,0.8c-0.6-0.2-0.9-0.3-1.5-0.5c-0.4,1.2-0.6,1.8-0.9,3.1c-0.2,0.5,0,0.7,0.4,0.8
				c0.3,0.1,0.5,0.1,0.8,0.1C105.7,11.2,105.7,11.4,105.7,11.7z"/>
			<path class="st0" d="M108.8,5.5c0.1-0.3,0.5-0.5,0.8-0.4c0.4,0.1,0.5,0.5,0.4,0.8s-0.5,0.5-0.8,0.3
				C108.9,6.1,108.7,5.8,108.8,5.5z M106.7,12.2c0.7-2.1,1-3.1,1.7-5.1c0.4,0.1,0.6,0.2,1,0.3c-0.7,2-1.1,3.1-1.8,5.1
				C107.2,12.4,107,12.3,106.7,12.2z"/>
			<path class="st0" d="M109.6,10.7c0.1-0.3,0.2-0.4,0.3-0.7c0.6-1.5,2.1-1.9,3.4-1.4c1.4,0.5,2.2,1.8,1.6,3.3
				c-0.1,0.3-0.2,0.4-0.3,0.7c-0.6,1.5-2.1,1.8-3.4,1.3C109.9,13.5,109,12.2,109.6,10.7z M113.6,12.3c0.1-0.3,0.2-0.4,0.3-0.6
				c0.4-1-0.1-1.8-1-2.2c-0.9-0.3-1.8-0.1-2.2,0.9c-0.1,0.3-0.1,0.4-0.2,0.6c-0.4,1,0.1,1.8,1,2.2C112.3,13.5,113.2,13.3,113.6,12.3
				z"/>
			<path class="st0" d="M120.8,14.5c-0.6,1.2-0.9,1.8-1.5,3c-0.4-0.2-0.5-0.3-0.9-0.4c0.6-1.2,0.9-1.8,1.4-2.9
				c0.4-0.9,0.1-1.6-0.7-2c-0.8-0.4-1.7-0.1-2.1,0.6c-0.5,1.2-0.8,1.8-1.3,3c-0.4-0.2-0.5-0.2-0.9-0.4c0.9-2,1.3-3,2.2-5
				c0.4,0.2,0.5,0.2,0.9,0.4c-0.1,0.3-0.2,0.4-0.3,0.7c0.6-0.3,1.3-0.4,2.1,0C120.9,12,121.4,13.3,120.8,14.5z"/>
			<path class="st0" d="M121.5,16.7c0.1,0.8,0.5,1.4,1.2,1.8c0.6,0.3,1.2,0.4,1.5,0c0.2-0.4,0-0.8-0.5-1.3c-0.2-0.2-0.3-0.3-0.6-0.5
				c-0.7-0.6-1.2-1.4-0.8-2.2c0.4-0.9,1.5-0.9,2.6-0.3c1,0.6,1.5,1.4,1.6,2.3c-0.4,0-0.5,0-0.9,0c-0.1-0.7-0.4-1.3-1.1-1.6
				c-0.6-0.3-1.1-0.3-1.3,0.1c-0.2,0.4,0,0.7,0.5,1.2c0.2,0.2,0.3,0.3,0.6,0.5c0.7,0.7,1.3,1.5,0.8,2.3c-0.5,0.9-1.7,0.8-2.7,0.2
				c-1-0.6-1.6-1.4-1.7-2.4C120.9,16.7,121.1,16.7,121.5,16.7z"/>
		</g>
	</g>
</g>
</svg>
