<svg id="레이어_1" data-name="레이어 1" xmlns="http://www.w3.org/2000/svg" xmlns:xlink="http://www.w3.org/1999/xlink" viewBox="0 0 1120.62 535.36"><defs><style>.cls-1{fill:url(#무제_그라디언트_9);}.cls-2{fill:url(#무제_그라디언트_9-2);}.cls-3{fill:url(#무제_그라디언트_9-3);}.cls-4{fill:url(#무제_그라디언트_9-4);}.cls-5{fill:url(#무제_그라디언트_9-5);}.cls-6{fill:url(#무제_그라디언트_9-6);}.cls-7{fill:url(#무제_그라디언트_9-7);}.cls-8{fill:url(#무제_그라디언트_9-8);}.cls-9{fill:url(#무제_그라디언트_9-9);}.cls-10{fill:url(#무제_그라디언트_9-10);}.cls-11{fill:url(#무제_그라디언트_9-11);}.cls-12{fill:url(#무제_그라디언트_9-12);}.cls-13{fill:url(#무제_그라디언트_9-13);}.cls-14{fill:url(#무제_그라디언트_9-14);}.cls-15{fill:url(#무제_그라디언트_9-15);}.cls-16{fill:url(#무제_그라디언트_9-16);}.cls-17{fill:url(#무제_그라디언트_9-17);}.cls-18{fill:url(#무제_그라디언트_9-18);}.cls-19{fill:url(#무제_그라디언트_9-19);}.cls-20{fill:url(#무제_그라디언트_9-20);}.cls-21{fill:url(#무제_그라디언트_9-21);}.cls-22{fill:url(#무제_그라디언트_9-22);}</style><linearGradient id="무제_그라디언트_9" x1="-11.67" y1="251.98" x2="822.15" y2="445.65" gradientUnits="userSpaceOnUse"><stop offset="0" stop-color="#618dd8"/><stop offset="1" stop-color="#faa4bf"/></linearGradient><linearGradient id="무제_그라디언트_9-2" x1="3.13" y1="188.29" x2="836.94" y2="381.96" xlink:href="#무제_그라디언트_9"/><linearGradient id="무제_그라디언트_9-3" x1="6.9" y1="172.05" x2="840.71" y2="365.72" xlink:href="#무제_그라디언트_9"/><linearGradient id="무제_그라디언트_9-4" x1="14.42" y1="139.65" x2="848.24" y2="333.32" xlink:href="#무제_그라디언트_9"/><linearGradient id="무제_그라디언트_9-5" x1="11.53" y1="152.12" x2="845.34" y2="345.79" xlink:href="#무제_그라디언트_9"/><linearGradient id="무제_그라디언트_9-6" x1="16.54" y1="58.48" x2="838.52" y2="175.28" xlink:href="#무제_그라디언트_9"/><linearGradient id="무제_그라디언트_9-7" x1="18.59" y1="44.01" x2="840.58" y2="160.8" xlink:href="#무제_그라디언트_9"/><linearGradient id="무제_그라디언트_9-8" x1="21.38" y1="24.43" x2="843.36" y2="141.22" xlink:href="#무제_그라디언트_9"/><linearGradient id="무제_그라디언트_9-9" x1="23.1" y1="12.31" x2="845.08" y2="129.11" xlink:href="#무제_그라디언트_9"/><linearGradient id="무제_그라디언트_9-10" x1="24.4" y1="3.12" x2="846.39" y2="119.91" xlink:href="#무제_그라디언트_9"/><linearGradient id="무제_그라디언트_9-11" x1="27.48" y1="-18.54" x2="849.47" y2="98.25" xlink:href="#무제_그라디언트_9"/><linearGradient id="무제_그라디언트_9-12" x1="27.43" y1="-18.18" x2="849.42" y2="98.61" xlink:href="#무제_그라디언트_9"/><linearGradient id="무제_그라디언트_9-13" x1="28.92" y1="-28.68" x2="850.91" y2="88.11" xlink:href="#무제_그라디언트_9"/><linearGradient id="무제_그라디언트_9-14" x1="28.72" y1="-27.24" x2="850.7" y2="89.55" xlink:href="#무제_그라디언트_9"/><linearGradient id="무제_그라디언트_9-15" x1="29.28" y1="-31.2" x2="851.27" y2="85.59" xlink:href="#무제_그라디언트_9"/><linearGradient id="무제_그라디언트_9-16" x1="29.4" y1="-32.02" x2="851.38" y2="84.78" xlink:href="#무제_그라디언트_9"/><linearGradient id="무제_그라디언트_9-17" x1="30.36" y1="-38.77" x2="852.34" y2="78.02" xlink:href="#무제_그라디언트_9"/><linearGradient id="무제_그라디언트_9-18" x1="29.12" y1="-30.06" x2="851.11" y2="86.73" xlink:href="#무제_그라디언트_9"/><linearGradient id="무제_그라디언트_9-19" x1="29.41" y1="-32.09" x2="851.39" y2="84.7" xlink:href="#무제_그라디언트_9"/><linearGradient id="무제_그라디언트_9-20" x1="29.51" y1="-32.86" x2="851.5" y2="83.94" xlink:href="#무제_그라디언트_9"/><linearGradient id="무제_그라디언트_9-21" x1="27.78" y1="-20.63" x2="849.77" y2="96.16" xlink:href="#무제_그라디언트_9"/><linearGradient id="무제_그라디언트_9-22" x1="26.67" y1="-12.83" x2="848.66" y2="103.96" xlink:href="#무제_그라디언트_9"/></defs><path class="cls-1" d="M444.74,246.34a43.85,43.85,0,0,1-16.44,15.48Q418.43,267,409.15,267a33.83,33.83,0,0,1-16.83-4.45q-7.94-4.44-10.25-10.25l-94,157q-10.83,18.19-19.53,25.73a29.57,29.57,0,0,1-19.93,7.54q-25.92,0-29.4-33.27L206.83,295.66,128.69,409.39q-13.55,19.74-21.85,26.5a29.44,29.44,0,0,1-19.15,6.77q-23.59,0-28.63-37.13L34.31,230.68q-1.17-7.74-4.45-12.38a48.75,48.75,0,0,0-8.32-8.9,35.51,35.51,0,0,1-5-5.22A8,8,0,0,1,15,199.34Q13,185,32,185h96.33q8.9,0,13.34,3.67a11.19,11.19,0,0,1,4.06,9.87,11.46,11.46,0,0,1-1.74,6,41.21,41.21,0,0,1-3.67,5.23,34.83,34.83,0,0,0-6.19,8.89c-1.29,2.85-1.68,6.58-1.16,11.22L143,323.13,201,240l-1.16-9.28a26.5,26.5,0,0,0-3.87-12,39.19,39.19,0,0,0-8.51-8.89,39.61,39.61,0,0,1-5.41-5.61,8,8,0,0,1-1.55-4.84Q178.6,185,197.55,185h96.71q8.89,0,13.54,3.67a11,11,0,0,1,4.25,9.87c0,3.35-1.8,7.1-5.41,11.22a39.68,39.68,0,0,0-5.8,8.89c-1.3,2.85-1.81,6.58-1.55,11.22l4.64,84.33,52.22-91.29q12.77-22,24.76-30.75t31.34-8.71q17.4,0,28.23,10.45t10.84,28.24Q451.32,236.09,444.74,246.34Z"/><path class="cls-2" d="M543,246.54q10.44,8.51,10.44,23.21a53.64,53.64,0,0,1-2.71,17L515.14,402.43a34.31,34.31,0,0,0-1.16,8.13c0,3.35.64,6,1.94,7.92a24,24,0,0,0,5.41,5.61,32.4,32.4,0,0,1,3.87,4.45,5.21,5.21,0,0,1,.39,4.45,12.88,12.88,0,0,1-7.74,7.35q-5.8,2.32-17.79,2.32h-88.2q-10.07,0-14.7-3.29a7.34,7.34,0,0,1-3.1-8.7c1-3.09,3.74-5.8,8.13-8.12a35.46,35.46,0,0,0,9.67-7.35q3.86-4.26,6.57-13.54l33.66-111.8a19.17,19.17,0,0,0,1.16-5.8,10.83,10.83,0,0,0-1.94-6.77,26.36,26.36,0,0,0-5.8-5.22,25.89,25.89,0,0,1-5.41-5.42c-1-1.55-1.16-3.61-.39-6.19q2.32-8.89,24.37-15.66a156,156,0,0,1,46-6.77Q532.55,238,543,246.54Zm18.18-84.14a32.58,32.58,0,0,1,10.05,24.18A41.09,41.09,0,0,1,566,206.31,41.66,41.66,0,0,1,551.31,222a38.59,38.59,0,0,1-21.08,6q-14.7,0-24.56-9.87t-10.26-24.56a40.54,40.54,0,0,1,5-19.15,42.67,42.67,0,0,1,14.32-15.66A37.43,37.43,0,0,1,536,152.54Q551.12,152.54,561.18,162.4Z"/><path class="cls-3" d="M734.28,246.15a10.12,10.12,0,0,1,4.07,8.51,32.42,32.42,0,0,1-.78,5.42q-5,17-23.21,17H691.92l-29,95.54a37.69,37.69,0,0,0-1.93,12c0,4.64,1.28,7.87,3.87,9.67S671,397,675.68,397a97.53,97.53,0,0,0,15.47-1.55,33.79,33.79,0,0,1,8.12-1.16,4.85,4.85,0,0,1,4.07,1.74,7.06,7.06,0,0,1,1.35,4.45q.39,7.74-11.41,18.76t-31.91,18.95q-20.13,7.94-44.49,7.93-26.31,0-42.17-12t-15.86-32.88A56,56,0,0,1,562,382.7l24.76-76.59a39.77,39.77,0,0,0,1.93-10.45A23,23,0,0,0,585,282.51a61.6,61.6,0,0,0-10.26-11.22,50.83,50.83,0,0,1-8.12-9.09,11,11,0,0,1-1.16-8.7,12.92,12.92,0,0,1,6.58-7.74q5-2.7,15.86-2.7h21.66l24.37-24.38q12.76-12.75,23.4-17.79t27.66-5q24.38,0,24.37,18.57a37,37,0,0,1-1.54,10.83l-5.42,17.8h20.5Q730.22,243.06,734.28,246.15Z"/><path class="cls-4" d="M881.28,246.15a10.12,10.12,0,0,1,4.07,8.51,32.42,32.42,0,0,1-.78,5.42q-5,17-23.21,17H838.92l-29,95.54a37.69,37.69,0,0,0-1.93,12c0,4.64,1.28,7.87,3.87,9.67S818,397,822.68,397a97.53,97.53,0,0,0,15.47-1.55,33.79,33.79,0,0,1,8.12-1.16,4.85,4.85,0,0,1,4.07,1.74,7.06,7.06,0,0,1,1.35,4.45q.39,7.74-11.41,18.76t-31.91,18.95q-20.13,7.94-44.49,7.93-26.31,0-42.17-12t-15.86-32.88A56,56,0,0,1,709,382.7l24.76-76.59a39.77,39.77,0,0,0,1.93-10.45A23,23,0,0,0,732,282.51a61.6,61.6,0,0,0-10.26-11.22,50.83,50.83,0,0,1-8.12-9.09,11,11,0,0,1-1.16-8.7,12.92,12.92,0,0,1,6.58-7.74q5-2.7,15.86-2.7h21.66l24.37-24.38q12.76-12.75,23.4-17.79t27.66-5q24.38,0,24.37,18.57a37,37,0,0,1-1.54,10.83l-5.42,17.8h20.5Q877.22,243.06,881.28,246.15Z"/><path class="cls-5" d="M1095.59,251.76q10.25,13.73,10.25,37.33,0,20.51-7.35,44.1-14.31,47.58-45.84,89.74t-72.34,67.7q-40.81,25.53-81.43,25.53-20.11,0-34.62-7t-22-18.57a44.63,44.63,0,0,1-7.54-24.76,47.91,47.91,0,0,1,1.93-12.76q3.48-10.85,11.61-16.64a32.37,32.37,0,0,1,19.34-5.8q17.79,0,29.2,12.19t14.51,33.46Q936,475.15,956.91,455q-19.73-3.48-29.21-13.35t-13-30.75l-15.47-94.77q-1.17-7.35-3.29-10.25a6.63,6.63,0,0,0-5.61-2.91c-1.8,0-3.93.91-6.38,2.71s-4.2,2.71-5.22,2.71q-3.1,0-3.1-6.58a38.68,38.68,0,0,1,1.94-11.6q7-22,25.91-37.33t44.1-15.28q24.75,0,36.56,14.7t15.28,45.26l11.61,85.1q1.15,9.68,7,9.67,7,0,16.25-12.57T1052.46,344a72.7,72.7,0,0,1-17.8-24,68.92,68.92,0,0,1-6.19-29,70.69,70.69,0,0,1,3.1-21.66q4.64-15.47,14.5-23.4a34.57,34.57,0,0,1,22.25-7.93Q1085.33,238,1095.59,251.76Z"/><path class="cls-6" d="M213.79,83.37c3.54-1.34,5.32-2,8.88-3.31,10.53,14.46,15.69,21.74,25.83,36.4-1.35-17.73-1.93-26.62-2.88-44.44,3.6-1.25,5.41-1.86,9-3.08,10,14.84,14.84,22.3,24.41,37.32-.72-17.81-1-26.74-1.28-44.61,3.61-1.09,5.42-1.63,9-2.68.1,22.63.33,33.93,1.11,56.46-4.09,1.27-6.13,1.91-10.21,3.22-9.12-14.1-13.77-21.11-23.23-35,.84,16.81,1.35,25.2,2.56,42-4.05,1.4-6.08,2.12-10.12,3.58C234,110.67,227.35,101.51,213.79,83.37Z"/><path class="cls-7" d="M336,84.66C324.64,87.46,319,89,307.66,92.11c2.3,6.42,7.59,8.47,12.59,7.14,4.32-1.16,7.63-4,8.25-8.3,3.38.12,5.07.19,8.43.35-.58,7.7-6.6,13.11-14.72,15.29-9.77,2.62-19.83-1.12-23.31-13.16-.45-1.54-.67-2.31-1.12-3.84-3.46-12,3.34-20.63,13.55-23.36s20.46,1.34,23.5,13.64C335.3,81.78,335.54,82.74,336,84.66ZM325.68,80c-1.36-5.3-6.72-8-12.4-6.47-5,1.34-8.4,5.55-7.45,11.79C313.75,83.08,317.72,82,325.68,80Z"/><path class="cls-8" d="M387.29,64.74l4.68,25c-3.16.6-4.74.9-7.9,1.52-.55-2-.82-2.94-1.37-4.89-1.42,4.15-4.85,7.14-9.91,8.2l-2.54.53c-7.2,1.53-13.81-2.36-15.48-9.7-1.56-6.9,2.54-13.2,12.47-15.28,4.63-1,6.94-1.44,11.58-2.36l-.19-1c-.88-4.45-4.38-7.24-10.32-6a9.62,9.62,0,0,0-7.73,6.68c-3.44-.6-5.16-.89-8.61-1.45,1.89-6,7.51-11.38,15.39-13C377,51,385.5,55.17,387.29,64.74ZM372.92,86.46c4.44-.92,8.14-4.16,7.91-8.53-.24-1.21-.35-1.81-.59-3-4.49.88-6.74,1.34-11.22,2.28s-6.32,3.32-5.68,6.25,3.46,4.3,7.09,3.53Z"/><path class="cls-9" d="M415.54,45.17c-.4,3.19-.59,4.78-1,8a15.69,15.69,0,0,0-4.93,0c-4.17.67-7.86,4.21-6.85,10.13,1.63,9.51,2.44,14.27,4.07,23.79-3.47.59-5.2.89-8.66,1.52-2.82-15.67-4.24-23.5-7.06-39.17,3.35-.61,5-.9,8.39-1.48.52,2.07.79,3.11,1.31,5.19A11,11,0,0,1,410,45.16,15.3,15.3,0,0,1,415.54,45.17Z"/><path class="cls-10" d="M458.18,62.81c-11.58,1.3-17.36,2-28.9,3.7,1.44,6.66,6.4,9.39,11.49,8.71,4.41-.58,8-3,9.2-7.15,3.31.56,5,.85,8.27,1.45-1.57,7.55-8.19,12.14-16.47,13.24-10,1.32-19.4-3.7-21.29-16.09-.24-1.59-.37-2.38-.61-4-1.88-12.32,5.93-20,16.33-21.38,10.55-1.4,20,4,21.43,16.58Zm-9.58-6c-.66-5.43-5.61-8.79-11.41-8-5.09.68-9,4.4-8.85,10.71C436.44,58.34,440.49,57.81,448.6,56.82Z"/><path class="cls-11" d="M503.65,21.12c3.69-.23,5.54-.33,9.24-.53,1.15,21.73,1.72,32.6,2.86,54.33-3.25.17-4.88.26-8.13.46-.29-2-.44-3.06-.73-5.1a16.21,16.21,0,0,1-12.41,7c-8.31.63-17-5.53-18.11-17.48l-.37-4C474.9,44,482.65,36.25,491.34,35.6a16.61,16.61,0,0,1,13.51,5Zm2.24,36.2c-.09-1.41-.13-2.12-.22-3.53-.48-7.65-5.4-11-11.15-10.61S484.32,47.66,485,55.3l.3,3.52c.64,7.64,5.51,10.91,11.17,10.5S506.36,65,505.89,57.32Z"/><path class="cls-12" d="M555.94,48.27c.09,10.16.14,15.24.24,25.4-3.21,0-4.81,0-8,.11l-.5-5.06c-2.11,3.84-6,6.18-11.14,6.34l-2.57.08c-7.32.24-13.12-4.75-13.47-12.27-.34-7.06,4.77-12.54,14.86-12.86,4.7-.14,7.06-.2,11.76-.29,0-.4,0-.6,0-1-.08-4.53-3-7.89-9.06-7.72a9.56,9.56,0,0,0-8.74,5.22c-3.26-1.19-4.9-1.78-8.18-2.94,2.91-5.6,9.34-9.88,17.34-10.1C548.28,32.92,555.84,38.53,555.94,48.27ZM538.07,67.14c4.51-.13,8.69-2.67,9.23-7l0-3.06c-4.56.08-6.84.14-11.4.28s-6.76,2.16-6.65,5.16,2.65,4.83,6.34,4.72Z"/><path class="cls-13" d="M586.12,73a21.06,21.06,0,0,1-8.85,1.71c-7-.1-11.52-3.75-11.52-11,0-8.82,0-13.24,0-22.07l-6.95,0-.05-7.8,7,0c0-4.24,0-6.36,0-10.6,3.66,0,5.49,0,9.15.05l-.1,10.6c4.16,0,6.24.08,10.39.16-.06,3.12-.09,4.68-.16,7.8-4.12-.08-6.19-.12-10.31-.16-.08,8.32-.13,12.48-.21,20.8,0,3.47,1.53,4.42,4.13,4.45a14.54,14.54,0,0,0,5.63-1.17C585,68.65,585.4,70.1,586.12,73Z"/><path class="cls-14" d="M624.13,50l-1.55,25.35c-3.2-.2-4.8-.29-8-.46-.05-2-.08-3.05-.14-5.08-2.38,3.68-6.41,5.75-11.56,5.54l-2.57-.1C593,75,587.56,69.63,587.74,62.1c.17-7.07,5.65-12.18,15.73-11.78,4.71.19,7.06.3,11.76.55l0-1c.23-4.53-2.47-8.09-8.5-8.35a9.56,9.56,0,0,0-9.08,4.59c-3.17-1.42-4.76-2.12-8-3.5,3.29-5.39,10-9.2,18-8.86C617.58,34.18,624.73,40.32,624.13,50ZM605,67.6c4.51.19,8.87-2,9.71-6.35.07-1.22.1-1.84.16-3.06-4.55-.24-6.83-.34-11.38-.53s-6.9,1.69-7,4.69,2.3,5,6,5.15Z"/><path class="cls-15" d="M648.36,64.34a14.26,14.26,0,0,0,11.47,7.78c4,.41,7.76-.53,8.1-3.64S665.64,64,662,62.69L657.33,61c-6.19-2.14-12.08-5.78-11.45-13.28s7.6-11,16.42-10.08c8.39.84,13.43,5.05,16.41,10.37-2.81,1.52-4.21,2.29-7,3.83-2.45-3.9-6.14-6.57-10.27-7s-6.66,1-6.91,3.62,1.58,4.16,5.23,5.52l4.67,1.62c6.21,2.18,12.9,5.92,12,13.8s-9.2,10.73-17.51,9.89-14.56-4.63-17.61-11.17C644.1,66.63,645.52,65.86,648.36,64.34Z"/><path class="cls-16" d="M680.83,63.19l.6-5c1.47-12,11.31-17.11,21.78-15.62s18.58,9.11,16.63,21.09c-.32,2-.49,3-.81,4.93-2,12-11.69,16.79-21.71,15.37S679.35,75.3,680.83,63.19ZM710.23,67c.28-1.8.41-2.69.69-4.49,1.1-7.18-3.24-11.42-8.81-12.22s-10.86,2.08-11.8,9.29c-.24,1.8-.36,2.7-.59,4.49-1,7.21,3.27,11.39,8.69,12.16S709.13,74.22,710.23,67Z"/><path class="cls-17" d="M721.8,86.8c3.63-21.46,5.44-32.19,9.08-53.64,3.66.62,5.49.94,9.15,1.59-3.83,21.42-5.75,32.13-9.58,53.55C727,87.69,725.26,87.38,721.8,86.8Z"/><path class="cls-18" d="M771.62,55.86c3.58.78,5.38,1.17,9,2-3.51,15.53-5.26,23.3-8.77,38.83-3.19-.72-4.79-1.08-8-1.77.27-2,.4-3,.67-5a14.34,14.34,0,0,1-13,3.47c-8.34-1.69-13.87-9.21-12-19.44,1.76-9.44,2.63-14.16,4.39-23.59,3.6.67,5.4,1,9,1.71-1.82,9.29-2.73,13.94-4.54,23.23-1.29,6.61,1.91,9.88,7,10.93s10-1.37,11.13-6.65C768.55,70.06,769.57,65.33,771.62,55.86Z"/><path class="cls-19" d="M802.31,103.19a21.16,21.16,0,0,1-9.07-.39c-6.89-1.73-10.43-6.32-8.75-13.39l5.1-21.47c-2.72-.65-4.08-1-6.81-1.59l1.75-7.61,6.87,1.61L793.85,50c3.58.86,5.37,1.29,8.95,2.18L800.25,62.5c4.07,1,6.1,1.52,10.16,2.57l-1.95,7.55c-4-1-6-1.55-10.08-2.55l-5,20.19c-.83,3.37.48,4.65,3,5.29a14.72,14.72,0,0,0,5.79.17C802.24,98.71,802.27,100.2,802.31,103.19Z"/><path class="cls-20" d="M818.61,55a5.5,5.5,0,1,1,4,6.3A5.28,5.28,0,0,1,818.61,55Zm-12.42,50.09,10.22-38.47c3.56,1,5.33,1.43,8.88,2.41-4.23,15.35-6.34,23-10.58,38.37C811.31,106.48,809.6,106,806.19,105.11Z"/><path class="cls-21" d="M825.67,92.34c.55-1.92.82-2.88,1.36-4.81,3.31-11.67,13.87-15.14,24.07-12S868.22,87.42,864.45,99c-.63,1.9-.94,2.85-1.56,4.75-3.8,11.6-14.23,14.76-24,11.78S822.35,104.08,825.67,92.34Zm28.69,8.4c.55-1.72.82-2.59,1.37-4.32,2.2-6.92-1.47-11.8-6.9-13.46s-11.13.36-13.18,7.33l-1.27,4.35c-2,7,1.51,11.77,6.8,13.38S852.16,107.67,854.36,100.74Z"/><path class="cls-22" d="M905.55,111.75l-8.5,22.51c-3.33-1.25-5-1.88-8.34-3.1,3.26-8.89,4.9-13.33,8.16-22.22,2.32-6.32-.47-10.12-5.64-12s-10.29-.08-12.07,5.09c-3.16,9.15-4.74,13.73-7.89,22.88-3.36-1.16-5-1.73-8.4-2.85l12.62-37.75c3.26,1.09,4.89,1.64,8.14,2.76-.49,2-.74,3-1.24,4.93,3.55-2.65,8.56-3.46,13.9-1.54C904.74,93.54,909.21,102.08,905.55,111.75Z"/></svg>